<?xml version="1.0" standalone="no"?>
<!DOCTYPE svg PUBLIC "-//W3C//DTD SVG 1.1//EN" "http://www.w3.org/Graphics/SVG/1.1/DTD/svg11.dtd" >
<!--
2013-9-30: Created.
-->
<svg>
<metadata>
Created by iconfont
</metadata>
<defs>

<font id="iconfont" horiz-adv-x="1024" >
  <font-face
    font-family="iconfont"
    font-weight="500"
    font-stretch="normal"
    units-per-em="1024"
    ascent="896"
    descent="-128"
  />
    <missing-glyph />
    
    <glyph glyph-name="x" unicode="x" horiz-adv-x="1001"
d="M281 543q-27 -1 -53 -1h-83q-18 0 -36.5 -6t-32.5 -18.5t-23 -32t-9 -45.5v-76h912v41q0 16 -0.5 30t-0.5 18q0 13 -5 29t-17 29.5t-31.5 22.5t-49.5 9h-133v-97h-438v97zM955 310v-52q0 -23 0.5 -52t0.5 -58t-10.5 -47.5t-26 -30t-33 -16t-31.5 -4.5q-14 -1 -29.5 -0.5
t-29.5 0.5h-32l-45 128h-439l-44 -128h-29h-34q-20 0 -45 1q-25 0 -41 9.5t-25.5 23t-13.5 29.5t-4 30v167h911zM163 247q-12 0 -21 -8.5t-9 -21.5t9 -21.5t21 -8.5q13 0 22 8.5t9 21.5t-9 21.5t-22 8.5zM316 123q-8 -26 -14 -48q-5 -19 -10.5 -37t-7.5 -25t-3 -15t1 -14.5
t9.5 -10.5t21.5 -4h37h67h81h80h64h36q23 0 34 12t2 38q-5 13 -9.5 30.5t-9.5 34.5q-5 19 -11 39h-368zM336 498v228q0 11 2.5 23t10 21.5t20.5 15.5t34 6h188q31 0 51.5 -14.5t20.5 -52.5v-227h-327z" />
    

    
    <glyph glyph-name="jiaoyiguanli" unicode="&#59116;" d="M640 68.266667l0-68.266667c0-68.266667-81.066667 0-128 0-38.4 0-85.333333-42.666667-128-42.666667s-85.333333 42.666667-128 42.666667c-38.4 0-128-68.266667-128 0l0 768 512 0 0-213.333333M149.333333 746.666667l469.333334 0 0-192c0-12.8 8.533333-21.333333 21.333333-21.333334s21.333333 8.533333 21.333333 21.333334l0 213.333333c0 12.8-8.533333 21.333333-21.333333 21.333333l-512 0c-12.8 0-21.333333-8.533333-21.333333-21.333333l0-768c0-29.866667 17.066667-51.2 42.666666-51.2 17.066667 0 29.866667 4.266667 59.733334 12.8l4.266666 0c25.6 8.533333 34.133333 12.8 42.666667 12.8 12.8 0 25.6-4.266667 55.466667-17.066667 34.133333-17.066667 51.2-25.6 72.533333-25.6s38.4 4.266667 76.8 25.6c29.866667 12.8 42.666667 17.066667 51.2 17.066667 8.533333 0 21.333333-4.266667 42.666667-12.8l4.266666 0c34.133333-12.8 42.666667-17.066667 59.733334-17.066667 29.866667 0 42.666667 21.333333 42.666666 51.2l0 68.266667c0 12.8-8.533333 21.333333-21.333333 21.333333s-21.333333-8.533333-21.333333-21.333333l0-76.8c-8.533333 0-17.066667 4.266667-42.666667 12.8l-4.266667 0c-25.6 12.8-42.666667 17.066667-59.733333 17.066667-21.333333 0-34.133333-4.266667-72.533333-25.6-29.866667-12.8-42.666667-17.066667-55.466667-17.066667-12.8 0-25.6 4.266667-55.466667 17.066667-34.133333 17.066667-51.2 25.6-72.533333 25.6-12.8 0-25.6-4.266667-59.733333-17.066667l-4.266667 0c-21.333333-8.533333-34.133333-12.8-42.666667-12.8-4.266667 0-4.266667 0-4.266666 8.533333l0 657.066667 0 98.133333 0-4.266666zm678.4-657.066667l85.333334-93.866667c8.533333-8.533333 21.333333-8.533333 29.866666 0s8.533333 21.333333 0 29.866667l-85.333333 93.866667c-8.533333 8.533333-21.333333 8.533333-29.866667 0-8.533333-8.533333-8.533333-21.333333 0-29.866667zM256 640l256 0c12.8 0 21.333333 8.533333 21.333333 21.333333s-8.533333 21.333333-21.333333 21.333334l-256 0c-12.8 0-21.333333-8.533333-21.333333-21.333334s8.533333-21.333333 21.333333-21.333333zm0-128l256 0c12.8 0 21.333333 8.533333 21.333333 21.333333s-8.533333 21.333333-21.333333 21.333334l-256 0c-12.8 0-21.333333-8.533333-21.333333-21.333334s8.533333-21.333333 21.333333-21.333333zm0-128l256 0c12.8 0 21.333333 8.533333 21.333333 21.333333s-8.533333 21.333333-21.333333 21.333334l-256 0c-12.8 0-21.333333-8.533333-21.333333-21.333334s8.533333-21.333333 21.333333-21.333333zm0-128l256 0c12.8 0 21.333333 8.533333 21.333333 21.333333s-8.533333 21.333333-21.333333 21.333334l-256 0c-12.8 0-21.333333-8.533333-21.333333-21.333334s8.533333-21.333333 21.333333-21.333333zM384 298.666667a256 256 0 1 0 512 0 256 256 0 1 0-512 0ZM640 21.333333c153.6 0 277.333333 123.733333 277.333333 277.333334s-123.733333 277.333333-277.333333 277.333333-277.333333-123.733333-277.333333-277.333333 123.733333-277.333333 277.333333-277.333334zm0 42.666667c-128 0-234.666667 106.666667-234.666667 234.666667s106.666667 234.666667 234.666667 234.666666 234.666667-106.666667 234.666667-234.666666-106.666667-234.666667-234.666667-234.666667zM529.066667 422.4l72.533333-140.8-46.933333 0 0-25.6 64 0 0-34.133333-64 0 0-25.6 64 0 0-64 42.666666 0 0 64 68.266667 0 0 25.6-68.266667 0 0 34.133333 68.266667 0 0 25.6-51.2 0 72.533333 140.8-51.2 0-59.733333-123.733333-59.733333 123.733333z"  horiz-adv-x="1024" />

    
    <glyph glyph-name="shujuzhongxin" unicode="&#59120;" d="M85.333333 179.2c0 25.6 17.066667 51.2 38.4 59.733333L819.2 512c64 25.6 119.466667-8.533333 119.466667-81.066667L938.666667 0c0-25.6-21.333333-42.666667-42.666667-42.666667L128-42.666667c-21.333333 0-42.666667 17.066667-42.666667 42.666667l0 179.2zM819.2 516.266667 123.733333 238.933333c-21.333333-8.533333-38.4-34.133333-38.4-59.733333L85.333333 0c0-25.6 17.066667-42.666667 42.666667-42.666667l768 0c21.333333 0 42.666667 17.066667 42.666667 42.666667L938.666667 435.2c0 68.266667-51.2 106.666667-119.466667 81.066667zM682.666667 0l0 320c0 12.8-8.533333 21.333333-21.333334 21.333333s-21.333333-8.533333-21.333333-21.333333L640 0l-170.666667 0 0 234.666667c0 12.8-8.533333 21.333333-21.333333 21.333333s-21.333333-8.533333-21.333333-21.333333L426.666667 0 128 0l0 179.2c0 4.266667 8.533333 17.066667 12.8 17.066667L836.266667 469.333333c38.4 12.8 59.733333 0 59.733333-42.666666l0-435.2c0 8.533333-93.866667 8.533333-213.333333 8.533333zM162.133333 443.733333l627.2 268.8-29.866666-64c-4.266667-12.8 0-21.333333 12.8-29.866666s21.333333 0 29.866666 12.8L853.333333 746.666667c4.266667 12.8 0 21.333333-12.8 29.866666L725.333333 827.733333c-12.8 4.266667-21.333333 0-29.866666-12.8-4.266667-12.8 0-21.333333 12.8-29.866666l72.533333-29.866667L145.066667 486.4c-8.533333-4.266667-12.8-17.066667-8.533334-29.866667 4.266667-8.533333 17.066667-17.066667 25.6-12.8z"  horiz-adv-x="1024" />

    
    <glyph glyph-name="shangpinguanli" unicode="&#59122;" d="M170.666667 682.666667l682.666666 0 42.666667-725.333334-768 0 42.666667 725.333334zm533.333333-213.333334c34.133333 0 64 29.866667 64 64s-29.866667 64-64 64-64-29.866667-64-64 29.866667-64 64-64zm-384 0c34.133333 0 64 29.866667 64 64s-29.866667 64-64 64-64-29.866667-64-64 29.866667-64 64-64zM362.666667 341.333333l298.666666 0c12.8 0 21.333333-8.533333 21.333334-21.333333s-8.533333-21.333333-21.333334-21.333333l-298.666666 0c-12.8 0-21.333333 8.533333-21.333334 21.333333s8.533333 21.333333 21.333334 21.333333zM362.666667 170.666667l298.666666 0c12.8 0 21.333333-8.533333 21.333334-21.333334s-8.533333-21.333333-21.333334-21.333333l-298.666666 0c-12.8 0-21.333333 8.533333-21.333334 21.333333s8.533333 21.333333 21.333334 21.333334zM704 448c46.933333 0 85.333333 38.4 85.333333 85.333333s-38.4 85.333333-85.333333 85.333334-85.333333-38.4-85.333333-85.333334 38.4-85.333333 85.333333-85.333333zm0 42.666667c-25.6 0-42.666667 17.066667-42.666667 42.666666s17.066667 42.666667 42.666667 42.666667 42.666667-17.066667 42.666667-42.666667-17.066667-42.666667-42.666667-42.666666zM320 448c46.933333 0 85.333333 38.4 85.333333 85.333333s-38.4 85.333333-85.333333 85.333334-85.333333-38.4-85.333333-85.333334 38.4-85.333333 85.333333-85.333333zm0 42.666667c-25.6 0-42.666667 17.066667-42.666667 42.666666s17.066667 42.666667 42.666667 42.666667 42.666667-17.066667 42.666667-42.666667-17.066667-42.666667-42.666667-42.666666zM832 661.333333l38.4-682.666666-721.066667 0 38.4 682.666666 644.266667 0zm-661.333333 42.666667c-12.8 0-21.333333-8.533333-21.333334-21.333333l-42.666666-725.333334c0-12.8 8.533333-21.333333 21.333333-21.333333l768 0c12.8 0 21.333333 8.533333 21.333333 21.333333l-42.666666 725.333334c0 12.8-8.533333 21.333333-21.333334 21.333333l-682.666666 0zm533.333333-256c46.933333 0 85.333333 38.4 85.333333 85.333333s-38.4 85.333333-85.333333 85.333334-85.333333-38.4-85.333333-85.333334 38.4-85.333333 85.333333-85.333333zm0 42.666667c-25.6 0-42.666667 17.066667-42.666667 42.666666s17.066667 42.666667 42.666667 42.666667 42.666667-17.066667 42.666667-42.666667-17.066667-42.666667-42.666667-42.666666zm-384-42.666667c46.933333 0 85.333333 38.4 85.333333 85.333333s-38.4 85.333333-85.333333 85.333334-85.333333-38.4-85.333333-85.333334 38.4-85.333333 85.333333-85.333333zm0 42.666667c-25.6 0-42.666667 17.066667-42.666667 42.666666s17.066667 42.666667 42.666667 42.666667 42.666667-17.066667 42.666667-42.666667-17.066667-42.666667-42.666667-42.666666zm426.666667 115.2c0 128-106.666667 234.666667-234.666667 234.666666s-234.666667-106.666667-234.666667-234.666666c0-12.8 8.533333-21.333333 21.333334-21.333334s21.333333 8.533333 21.333333 21.333334c0 106.666667 85.333333 192 192 192s192-85.333333 192-192c0-12.8 8.533333-21.333333 21.333333-21.333334s21.333333 12.8 21.333334 21.333334z"  horiz-adv-x="1024" />

    
    <glyph glyph-name="shangjiaguanli" unicode="&#59141;" d="M512 384m-426.666667 0a426.666667 426.666667 0 1 0 853.333334 0 426.666667 426.666667 0 1 0-853.333334 0ZM512-64c247.466667 0 448 200.533333 448 448s-200.533333 448-448 448-448-200.533333-448-448 200.533333-448 448-448zm0 42.666667c-221.866667 0-405.333333 183.466667-405.333333 405.333333s183.466667 405.333333 405.333333 405.333333 405.333333-183.466667 405.333333-405.333333-183.466667-405.333333-405.333333-405.333333zM324.266667 413.866667l379.733333 0 0-298.666667-379.733333 0zM366.933333 157.866667l294.4 0 0 213.333333-294.4 0 0-213.333333zm-42.666666 256l379.733333 0 0-298.666667-379.733333 0 0 298.666667zM516.266667 669.866667l273.066666-294.4-550.4 0zM742.4 396.8l-452.266667 0 226.133334 238.933333 226.133333-238.933333zm-213.333333 285.866667c-8.533333 8.533333-21.333333 8.533333-29.866667 0l-277.333333-294.4c-12.8-12.8-4.266667-34.133333 17.066666-34.133334l550.4 0c17.066667 0 29.866667 21.333333 17.066667 34.133334l-277.333333 294.4zM473.6 298.666667l85.333333 0 0-149.333334-85.333333 0z"  horiz-adv-x="1024" />

    
    <glyph glyph-name="zhanghaoguanli" unicode="&#59145;" d="M512 384m-405.333333 0a405.333333 405.333333 0 1 0 810.666666 0 405.333333 405.333333 0 1 0-810.666666 0ZM512-42.666667c234.666667 0 426.666667 192 426.666667 426.666667s-192 426.666667-426.666667 426.666667-426.666667-192-426.666667-426.666667 192-426.666667 426.666667-426.666667zm0 42.666667c-213.333333 0-384 170.666667-384 384s170.666667 384 384 384 384-170.666667 384-384-170.666667-384-384-384zM490.666667 686.933333c-72.533333-8.533333-128-68.266667-128-140.8l0-17.066666c-4.266667-25.6-8.533333-51.2-8.533334-76.8l-4.266666 0c-12.8 0-21.333333-12.8-21.333334-25.6l8.533334-55.466667c0-12.8 12.8-21.333333 25.6-21.333333l4.266666 0c8.533333-29.866667 25.6-55.466667 42.666667-76.8l0-81.066667 200.533333 0 0 81.066667c17.066667 21.333333 34.133333 46.933333 42.666667 76.8l4.266667 0c12.8 0 25.6 8.533333 25.6 21.333333l8.533333 59.733333c0 12.8-8.533333 25.6-21.333333 25.6l-4.266667 0c0 25.6-4.266667 51.2-8.533333 76.8l0 17.066667c0 51.2-29.866667 98.133333-72.533334 119.466667 4.266667 21.333333 0 38.4-17.066666 38.4-17.066667-4.266667-59.733333-17.066667-76.8-21.333334zM780.8 59.733333l-8.533333 0c-25.6 8.533333-81.066667 29.866667-136.533334 42.666667-8.533333 4.266667-12.8 8.533333-17.066666 17.066667l-4.266667 42.666666-204.8 0-4.266667-42.666666c0-8.533333-8.533333-17.066667-17.066666-17.066667-55.466667-12.8-110.933333-34.133333-136.533334-42.666667-12.8-4.266667-21.333333 0-25.6 12.8-4.266667 12.8 0 21.333333 12.8 25.6 25.6 8.533333 72.533333 25.6 123.733334 38.4l4.266666 46.933334c0 12.8 8.533333 17.066667 21.333334 17.066666l243.2 0c12.8 0 21.333333-8.533333 21.333333-17.066666l4.266667-46.933334c51.2-12.8 102.4-29.866667 128-38.4 12.8-4.266667 17.066667-17.066667 12.8-25.6 0-4.266667-8.533333-12.8-17.066667-12.8zM614.4 166.4l-200.533333 0c-12.8 0-21.333333 8.533333-21.333334 21.333333l0 72.533334c-12.8 17.066667-25.6 38.4-38.4 64-8.533333 0-12.8 4.266667-21.333333 8.533333-8.533333 8.533333-17.066667 17.066667-17.066667 29.866667l-8.533333 55.466666c0 12.8 0 25.6 8.533333 34.133334l12.8 12.8c0 21.333333 4.266667 42.666667 8.533334 59.733333l0 17.066667c0 81.066667 64 149.333333 145.066666 162.133333 25.6 8.533333 64 21.333333 89.6 21.333333 12.8 0 21.333333-4.266667 29.866667-12.8 8.533333-8.533333 12.8-21.333333 8.533333-38.4 46.933333-29.866667 72.533333-81.066667 72.533334-132.266666l0-17.066667c4.266667-21.333333 8.533333-38.4 8.533333-59.733333l12.8-12.8c8.533333-8.533333 8.533333-21.333333 8.533333-34.133334l-8.533333-59.733333c0-12.8-8.533333-21.333333-17.066667-29.866667-4.266667-4.266667-12.8-8.533333-21.333333-8.533333-8.533333-21.333333-21.333333-42.666667-38.4-64l0-72.533333c8.533333-8.533333-4.266667-17.066667-12.8-17.066667zm-179.2 42.666667l157.866667 0 0 59.733333c0 4.266667 0 8.533333 4.266666 12.8 17.066667 17.066667 29.866667 42.666667 38.4 72.533333 0 4.266667 4.266667 8.533333 12.8 12.8 4.266667 4.266667 12.8 4.266667 17.066667 0l12.8 59.733334c-4.266667 0-12.8 4.266667-17.066667 8.533333-4.266667 4.266667-8.533333 8.533333-8.533333 17.066667 0 25.6-4.266667 46.933333-8.533333 72.533333l0 8.533333 0 17.066667c0 42.666667-21.333333 81.066667-59.733334 102.4-8.533333 4.266667-12.8 12.8-8.533333 21.333333l0 12.8c-17.066667 0-42.666667-8.533333-76.8-17.066666l-4.266667 0c-64-8.533333-110.933333-59.733333-110.933333-119.466667L-230.4 524.8c-4.266667-21.333333-8.533333-46.933333-8.533333-72.533333 0-12.8-8.533333-21.333333-21.333334-21.333334l4.266667-59.733333c4.266667 4.266667 12.8 0 17.066667 0l12.8-12.8c8.533333-25.6 21.333333-51.2 38.4-72.533333 4.266667-4.266667 4.266667-8.533333 4.266666-12.8l0-64z"  horiz-adv-x="1024" />

    
    <glyph glyph-name="caiwuguanli" unicode="&#59146;" d="M512 725.333333l55.466667 106.666667 55.466666-106.666667 55.466667 106.666667 55.466667-106.666667 55.466666 106.666667 55.466667-106.666667 8.533333 0 0-746.666666c0-25.6-17.066667-42.666667-42.666666-42.666667l-597.333334 0c-25.6 0-42.666667 17.066667-42.666666 42.666667L170.666667 725.333333l8.533333 0 55.466667 106.666667 55.466666-106.666667 55.466667 106.666667 55.466667-106.666667 55.466666 106.666667 55.466667-106.666667zM759.466667 98.133333l-251.733334 0c-12.8 0-21.333333 8.533333-21.333333 21.333334s8.533333 21.333333 21.333333 21.333333l251.733334 0c12.8 0 21.333333-8.533333 21.333333-21.333333s-8.533333-21.333333-21.333333-21.333334zm0 128l-251.733334 0c-12.8 0-21.333333 8.533333-21.333333 21.333334s8.533333 21.333333 21.333333 21.333333l251.733334 0c12.8 0 21.333333-8.533333 21.333333-21.333333s-8.533333-21.333333-21.333333-21.333334zm0 128l-251.733334 0c-12.8 0-21.333333 8.533333-21.333333 21.333334s8.533333 21.333333 21.333333 21.333333l251.733334 0c12.8 0 21.333333-8.533333 21.333333-21.333333s-8.533333-21.333333-21.333333-21.333334zm0 128l-251.733334 0c-12.8 0-21.333333 8.533333-21.333333 21.333334s8.533333 21.333333 21.333333 21.333333l251.733334 0c12.8 0 21.333333-8.533333 21.333333-21.333333s-8.533333-21.333333-21.333333-21.333334zM349.866667 217.6l-8.533334 0-76.8 38.4c-8.533333 4.266667-17.066667 17.066667-8.533333 29.866667 4.266667 8.533333 17.066667 17.066667 29.866667 8.533333l55.466666-25.6 68.266667 187.733333c4.266667 12.8 17.066667 17.066667 25.6 12.8 12.8-4.266667 17.066667-17.066667 12.8-25.6l-76.8-209.066666c0-4.266667-8.533333-8.533333-12.8-12.8-4.266667-4.266667-8.533333-4.266667-8.533333-4.266667zM810.666667-85.333333l-597.333334 0c-38.4 0-64 25.6-64 64l0 768 17.066667 0 68.266667 132.266666 55.466666-106.666666 55.466667 106.666666 55.466667-106.666666 55.466666 106.666666 55.466667-106.666666 55.466667 106.666666 55.466666-106.666666 55.466667 106.666666 55.466667-106.666666 55.466666 106.666666 68.266667-132.266666 17.066667 0 0-768c0-38.4-25.6-64-64-64zm-618.666667 789.333333l0-725.333333c0-12.8 8.533333-21.333333 21.333333-21.333334l597.333334 0c12.8 0 21.333333 8.533333 21.333333 21.333334l0 725.333333-42.666667 81.066667-55.466666-106.666667-55.466667 106.666667-55.466667-106.666667-55.466666 106.666667-55.466667-106.666667-55.466667 106.666667-55.466666-106.666667-55.466667 106.666667-55.466667-106.666667-55.466666 106.666667-42.666667-81.066667z"  horiz-adv-x="1024" />

    
    <glyph glyph-name="yingxiaohuodong" unicode="&#59148;" d="M913.067 59.733c-21.334 320-204.8 558.934-401.067 558.934S132.267 379.733 110.933 64c-8.533-128 76.8-140.8 115.2-140.8l571.734 0c34.133 0 123.733 12.8 115.2 136.533zM934.4 59.733C913.067 384 725.333 640 512 640S110.933 388.267 89.6 64c-8.533-115.2 55.467-162.133 136.533-162.133l571.734 0c81.066 0 145.066 46.933 136.533 157.866zm-42.667 0c4.267-85.333-34.133-115.2-93.866-115.2L226.133 780.8C166.4-55.467 128-25.6 132.267 64 153.6 366.933 324.267 601.6 512 601.6c187.733-4.267 358.4-238.933 379.733-541.867zM682.667 580.267c0 4.266 4.266 8.533 8.533 12.8l25.6 25.6c25.6 25.6 51.2 38.4 76.8 38.4 12.8 0 21.333 8.533 21.333 21.333s-8.533 21.333-21.333 21.333c-38.4 0-72.533-17.066-106.667-51.2C674.133 640 665.6 627.2 657.067 614.4c-4.267-8.533-8.534-12.8-12.8-17.067-8.534-8.533-4.267-21.333 4.266-29.866 17.067 0 29.867 4.266 34.134 12.8zm-315.734-128l98.134-174.934-64 0L-281.6 243.2l81.066 0 0-42.667-81.066 0 0-29.866 81.066 0 0-76.8 59.734 0 0 76.8L627.2 170.667l0 29.866-85.333 0L541.867 243.2 627.2 243.2l0 34.133-68.267 0 98.134 174.934L588.8 452.267l-76.8-153.6-76.8 153.6zM648.533 580.267l-4.266 0c-46.934 12.8-89.6 21.333-132.267 21.333-38.4 0-81.067-8.533-128-21.333l-17.067 0c-4.266 4.266-8.533 8.533-8.533 12.8l-72.533 243.2c-4.267 8.533 0 17.066 8.533 25.6 8.533 4.266 17.067 4.266 25.6 0 29.867-21.334 110.933-76.8 166.4-76.8 46.933 0 179.2 55.466 226.133 81.066 8.534 4.267 17.067 4.267 21.334-4.266 8.533-4.267 8.533-12.8 8.533-21.334l-72.533-243.2c0-4.266-4.267-8.533-8.534-12.8-8.533 0-12.8-4.266-12.8-4.266zm-307.2 217.6l51.2-166.4C426.667 640 465.067 648.533 512 648.533c38.4 0 81.067-4.266 123.733-17.066l51.2 179.2c-55.466-25.6-153.6-64-200.533-64-46.933-4.267-102.4 25.6-145.067 51.2z"  horiz-adv-x="1024" />

    
    <glyph glyph-name="yingxiaotong" unicode="&#59149;" d="M170.667 635.733c0 25.6 17.066 51.2 38.4 64L435.2 814.933c42.667 21.334 110.933 21.334 153.6 0l226.133-115.2c21.334-12.8 38.4-38.4 38.4-64l0-593.066c0-46.934-38.4-85.334-85.333-85.334L256-42.667c-46.933 0-85.333 38.4-85.333 85.334L170.667 635.733zM512 524.8c34.133 0 64 29.867 64 64s-29.867 64-64 64-64-29.867-64-64 29.867-64 64-64zM192 635.733c0 17.067 12.8 38.4 25.6 42.667l226.133 115.2c34.134 17.067 98.134 17.067 132.267 0l226.133-115.2c12.8-8.533 25.6-25.6 25.6-42.667l0-593.066c0-34.134-29.866-64-64-64l-512 0c-34.133 0-64 29.866-64 64L187.733 635.733zm-42.667 0l0-593.066C149.333-17.067 196.267-64 256-64l512 0c59.733 0 106.667 46.933 106.667 106.667L874.667 635.733c0 29.867-21.334 68.267-51.2 81.067L597.333 832C550.4 857.6 473.6 857.6 426.667 832L200.533 716.8c-29.866-17.067-51.2-51.2-51.2-81.067zM512 503.467c46.933 0 85.333 38.4 85.333 85.333s-38.4 85.333-85.333 85.333-85.333-38.4-85.333-85.333 38.4-85.333 85.333-85.333zm0 42.666c-21.333 0-42.667 17.067-42.667 42.667S486.4 631.467 512 631.467s42.667-17.067 42.667-42.667-21.334-42.667-42.667-42.667zM640 401.067 375.467 140.8c-8.534-8.533-8.534-21.333 0-29.867 8.533-8.533 21.333-8.533 29.866 0L669.867 371.2c8.533 8.533 8.533 21.333 0 29.867-8.534 4.266-21.334 4.266-29.867 0zM426.667 256c42.666 0 76.8 34.133 76.8 72.533s-34.134 72.534-76.8 72.534-76.8-34.134-76.8-72.534S384 256 426.667 256zm0 42.667c-17.067 0-34.134 12.8-34.134 29.866s12.8 29.867 34.134 29.867 34.133-12.8 34.133-29.867-17.067-29.866-34.133-29.866zm192-200.534c42.666 0 76.8 34.134 76.8 72.534s-34.134 72.533-76.8 72.533-76.8-34.133-76.8-72.533 38.4-72.534 76.8-72.534zm0 42.667c-17.067 0-34.134 12.8-34.134 29.867 0 17.066 12.8 29.866 34.134 29.866s34.133-12.8 34.133-29.866c0-12.8-12.8-29.867-34.133-29.867z"  horiz-adv-x="1024" />

    
    <glyph glyph-name="daikuantong" unicode="&#59150;" d="M512-64c247.467 0 448 200.533 448 448S759.467 832 512 832 64 631.467 64 384s200.533-448 448-448zm0 42.667c-221.867 0-405.333 183.466-405.333 405.333S290.133 789.333 512 789.333 917.333 605.867 917.333 384 733.867-21.333 512-21.333zM187.733 384a324.267 324.267 0 1 0 648.534 0 324.267 324.267 0 1 0-648.534 0zM512 38.4c192 0 345.6 153.6 345.6 345.6S704 729.6 512 729.6 166.4 576 166.4 384 320 38.4 512 38.4zm0 42.667C345.6 81.067 209.067 217.6 209.067 384S345.6 686.933 512 686.933 814.933 550.4 814.933 384 678.4 81.067 512 81.067zm238.933 657.066l-51.2-64C691.2 665.6 695.467 652.8 704 644.267c8.533-8.534 21.333-4.267 29.867 4.266l51.2 64c8.533 8.534 4.266 21.334-4.267 29.867-8.533 8.533-21.333 4.267-29.867-4.267zM281.6 140.8l-55.467-59.733c-8.533-8.534-8.533-21.334 0-29.867s21.334-8.533 29.867 0l55.467 59.733c8.533 8.534 8.533 21.334 0 29.867s-21.334 8.533-29.867 0zm89.6 409.6l93.867-174.933-64 0L119.467 345.6 486.4 345.6l0-42.667-85.333 0L401.067 268.8 486.4 268.8l0-72.533 55.467 0L541.867 268.8 627.2 268.8l0 34.133-85.333 0L541.867 345.6 627.2 345.6l0 29.867-68.267 0L657.067 550.4l-64 0L512 396.8l-76.8 153.6z"  horiz-adv-x="1024" />

    
    <glyph glyph-name="fuzhuang" unicode="&#58937;" d="M991.744 16.6656c-0.4096 2.6368-10.4704 65.7408-50.3808 147.9424a663.9616 663.9616 0 0 1-85.76 133.504 643.2 643.2 0 0 1-145.664 129.4848 118.7328 118.7328 0 0 0-26.2144 34.9184 105.472 105.472 0 0 0-10.3936 34.7648l0.6912 0.64-0.8448 0.8704c-2.0736 20.3776 1.8688 41.728 11.8528 63.8464 46.8736 103.808 84.4544 226.4064 82.0736 267.7504l-1.2544 21.376L595.712 895.6416l-10.0352-22.8608c-10.5984-24.1664-42.496-74.4448-73.2928-75.7504h-1.2032c-23.1424 0-50.8928 27.5968-78.2848 78.0032L421.5296 896 253.8752 845.7728l0.5376-22.4c0.1024-4.1216 3.0208-102.0928 53.0432-208.0768 22.4256-47.488 39.68-86.6048 41.1648-121.4208 0.9984-23.168-3.5072-55.7312-47.36-102.1184-18.5088-19.5584-39.808-37.504-62.3616-56.4992-39.424-33.2032-80.1792-67.5328-114.8416-117.0432-39.7056-56.6784-63.488-123.2384-72.6784-203.4432l-0.1536-1.408v-1.4336c-0.1024-4.5056 0.7168-28.032 24.4224-49.92 34.816-32.1536 100.9664-43.776 196.5312-34.4576 31.36 3.0464 45.312-4.1472 68.352-16.0256 32.2816-16.6912 76.544-39.5264 180.736-39.5264 85.8624 0 149.248 48.512 164.7616 61.6192 11.1616 4.7616 68.5824 24.9856 175.4112-10.1376 40.8064-13.4144 68.6592-3.84 84.864 6.5792 38.4512 24.6784 44.9792 73.3696 45.568 78.848l0.4608 3.8912-0.5888 3.8656z"  horiz-adv-x="1024" />

    
    <glyph glyph-name="dacu" unicode="&#58938;" d="M25.946678 588.352294h127.908769v-255.817538H25.946678zM409.672985 204.625987h-127.908769s17.779319-162.367391 153.490523-332.5628c-4.860533 0.153491 108.824781-4.96286 127.908769 51.163508-1.918632-8.800123 10.130375 22.511943-25.581754 51.163507-12.074588 30.135306-115.117892 117.727231-127.908769 230.235785zM818.981046 895.333339C613.636308 638.083223 205.018954 623.092315 205.018954 613.934048v-332.5628c484.185854-21.744491 624.655265-204.654031 613.962092-204.654031 197.823702 46.814609 178.304824 379.070428 179.072276 383.726308C1011.279089 938.310686 827.960241 894.310069 818.981046 895.333339z"  horiz-adv-x="1024" />

    
    <glyph glyph-name="jujia" unicode="&#58940;" d="M203.6224 322.4832c5.1456 114.688-47.488 158.0544-116.352 181.4272C45.568 885.6576 737.3312 880.7424 883.4304 700.416c35.072-43.3152 54.9632-122.24 55.1168-196.5056-69.376-22.7328-126.5664-60.4928-116.352-181.4272 0 0-299.776 154.5984-618.5728 0z m-30.9248-45.3376C218.9312 478.3616 15.6416 521.984 1.2288 360.2688c-10.624-118.8352 50.5344-257.1264 85.7088-317.44 5.9392-1.8688 11.6992-3.8656 17.792-5.5296h21.632v-38.2464c0-17.2288 19.1488-31.232 42.8032-31.232 23.6544 0 42.8288 14.0032 42.8288 31.232v38.2464h599.936v-38.2464c0-17.2288 19.2-31.232 42.8544-31.232 23.68 0 42.8288 14.0032 42.8288 31.232v38.2464h19.3536c7.7568 3.5072 13.5936 9.4208 21.248 13.0816 36.8896 80.2048 106.8288 214.016 79.6672 340.1472-18.3296 84.6592-139.4688 102.3488-165.376 0-11.4944-45.4144 17.92-72.2688-12.288-120.96 0 0-305.2032 182.3232-667.52 7.5776z"  horiz-adv-x="1024" />

    
    <glyph glyph-name="qinzi" unicode="&#58941;" d="M371.3792 597.2992c-58.7008 8.5504-108.2624 58.7776-102.8864 119.7824 5.1712 61.0048 57.3696 106.7008 116.48 101.76 59.136-4.736 107.1872-58.5728 97.6128-119.2448-11.648-73.0624-53.9392-110.7456-111.2064-102.2976m248.704-300.544c-7.936-0.896-17.792 3.7376-25.4976 9.8816-43.2896 33.6384-120.2432 140.0064-150.656 9.9072-13.7472-99.6608 3.328-176.0512 137.0368-342.784 5.9392-7.2448 7.5008-22.6048-5.4784-23.1936-13.056-0.5376-27.136 7.2448-27.136 7.2448-43.2896 19.0208-71.424 52.224-133.2224 112.768-52.096 50.7648-105.9328 63.2832-114.944 0.64a63.5392 63.5392 0 0 1-0.5376-9.216c0.3328-39.2192 0.9984-75.5968 4.1984-102.4512 1.8688-15.8208-18.8928-24.064-28.7744-11.3152C229.4528 7.04 173.5168 146.7392 180.864 358.4c0 36.9152-36.48 41.344-144.9472-89.472-31.104-37.4528-57.2416-16.384-10.3168 85.9392 0 0 103.7568 208.384 315.9552 203.2128 148.9152-13.3888 228.48-124.7232 277.7088-223.9488 4.8384-9.6768 8.448-17.152 10.2144-22.8608 1.92-6.656-2.4832-13.8752-9.3952-14.5152m164.4288-28.16c-44.9536-9.0112-103.8592 16.7168-113.7408 62.976-9.7792 46.5152 33.408 95.9232 78.336 104.96 44.9536 9.0112 89.2672-21.1968 99.1488-67.6864 9.7536-46.2848-18.688-91.2128-63.744-100.224m236.6208 21.0944c-8.0384-15.8464-26.1888-34.176-84.864-73.856-18.4576-12.544-37.6832-40.6784-41.3184-62.3104-4.3008-27.264 4.3008-53.7344 13.952-91.648 7.04-28.6976 13.6448-72.2176 3.2-99.6608-4.096-10.4704-17.7152-12.4416-22.1952-2.1248-13.056 29.568-28.672 69.6064-76.5952 78.2848-48.4864 3.7376-66.7136-29.2608-67.4816-74.752-0.3328-13.8496-14.9504-18.3296-26.1632-7.2192-13.056 13.3888-24.32 32.512-32.9984 83.84-10.8544 64.8704 5.7344 94.976-21.4016 115.6096-19.1232 14.7456-102.7584 25.9328-140.3392 67.584-6.912 7.7312-2.2272 19.584 8.1408 20.992 44.928 5.7088 123.3152-17.2288 253.7216-1.9456 97.0496 12.6208 174.208 58.112 216.2944 73.1648 13.952 4.7872 26.8288-8.3712 18.048-25.9584"  horiz-adv-x="1024" />

    
    <glyph glyph-name="xiezi" unicode="&#58942;" d="M972.6208 163.8912c-31.7184 27.904-68.608 49.8944-105.216 70.656-38.8608 22.1184-89.7536 61.0048-136.6272 53.76a30.464 30.464 0 0 1-9.984-2.4576 32.2816 32.2816 0 0 1-6.8096-3.328c-141.8496-81.0752-230.3488 91.5968-294.4512 187.8272-45.7728 68.7104-93.1584 136.2944-143.744 201.5232-31.6928 40.8832-72.1664 101.5808-123.6992 119.552-36.48 12.672-74.496-32.768-94.464-57.2416C4.5056 668.9792-7.2192 588.3392 3.7376 506.9568c7.0656-52.5568 31.3344-103.0656 44.3392-154.496 28.928-114.3552 37.376-233.3952 39.3728-350.9248a32.4352 32.4352 0 0 1 32.1024-32.1024l101.1712-0.1024c17.4848-0.0256 28.9536 14.592 28.9536 32.0768v334.08c31.7952-17.7408 50.944-45.952 68.0192-66.7648 55.1936-67.4048 80.128-152.9856 139.2896-217.4208 80-87.1168 187.648-85.76 295.296-81.792 74.3936 2.7392 221.312 0 263.7312 77.4144 24.2688 44.288-11.5456 88.9088-43.392 116.9664z"  horiz-adv-x="1024" />

    
    <glyph glyph-name="yunma" unicode="&#58943;" d="M860.3392 579.072c-25.6 81.3568-63.6416 190.6432-86.6816 231.04C734.6944 878.3872 689.4848 888.576 666.0096 888.576l-0.8448-0.0512a54.016 54.016 0 0 1-14.208 2.9184L553.2672 895.9488a49.2032 49.2032 0 0 1-26.9568-6.6048c-17.152-9.9584-169.088-99.2512-223.8208-168.448-30.4128-38.4512-35.84-85.376-14.848-128.7424 5.1712-10.6496 11.7248-20.6336 19.3792-29.7472C240.64 529.92 165.5296 473.5232 128.2048 377.1904c-88.576-228.7104 71.5008-424.192 168.4992-495.616 8.448-6.2208 18.688-9.5744 29.184-9.5744h357.376c15.1808 0 29.5424 7.04 38.8352 19.0464 11.392 14.6432 111.0016 146.7136 108.544 269.568a384.8192 384.8192 0 0 1-24.6784 128.8192c46.0544 21.888 80.3328 42.9824 92.8768 61.2864 13.2864 19.3536 22.8608 33.3312-38.5024 228.352z m-2.048-200.5248c-32.4864-47.36-369.8688-154.7776-369.8688-154.7776s-37.3248-5.376-67.0976-5.376c-14.4896 0-27.1872 1.28-32.9472 5.0688-7.168 4.736-56.7552 28.672-46.2336 57.1392 5.76 15.6416 29.7472 18.2784 50.0224 18.2784 10.2144 0 19.456-0.6656 24.9856-0.6656 2.048 0 3.6096 0.0768 4.5056 0.3328a8.7552 8.7552 0 0 0 2.3552 0.3072c12.9024 0 42.2912-20.6336 42.2912-20.6336s271.4368 144.0512 304.8448 144.0512c1.28 0 2.176-0.2048 2.7392-0.64 0 0-137.6768 229.12-151.5776 335.9488 0 0-1.8944 59.7248 35.7376 80.7168 0 0 2.9184 1.1008 7.9616 1.1008 12.5184 0 38.144-6.7328 64.9216-53.6832 37.5808-65.8432 139.9296-388.8128 127.36-407.168z"  horiz-adv-x="1024" />

    
    <glyph glyph-name="quanqiugou" unicode="&#58944;" d="M969.4208 481.024a470.784 470.784 0 0 0 11.904-105.5488c0-259.2256-210.1248-469.3504-469.3248-469.3504A467.8912 467.8912 0 0 0 178.688 45.056c106.88 23.0912 258.6112 86.656 421.888 177.152 159.7952 88.576 291.84 181.4528 368.8448 258.8672z m-22.6304 71.5008C876.9024 723.968 708.5568 844.8 512 844.8 252.8 844.8 42.6752 634.6752 42.6752 375.4752a467.2 467.2 0 0 1 84.5312-268.8c29.3632 4.0704 62.5408 7.5776 95.6416 11.4176 0.4864 0.4352 0.9472 0.896 1.408 1.3824 51.6864 52.352 137.9584 62.1568 238.3616 92.5184 179.968 101.12 382.8736 255.3344 454.7072 312.8064 10.496 8.3712 20.3008 17.92 29.44 27.7248zM512 716.8c-27.6992 0-54.9888-3.328-81.408-9.7792a21.3248 21.3248 0 1 1 10.112-41.4464A299.4176 299.4176 0 0 0 512 674.1248c52.5568 0 103.0656-13.568 147.712-39.0144a21.3248 21.3248 0 1 1 21.12 37.0688A339.84 339.84 0 0 1 512 716.8zM823.7568 673.792c5.76 1.6384 11.4176 3.2256 16.9728 4.7104 93.2864 24.8576 154.368 24.2432 175.0528-13.1072 41.216-74.3936-154.4448-244.1728-436.5568-400.5376-282.112-156.3904-529.7664-232.3712-571.008-157.952-18.7392 33.792 5.504 79.0784 61.3888 135.68 2.4832 2.5344 5.0176 5.0688 7.6288 7.6032 7.5264-17.1008 16.6144-30.0288 22.6816-37.632-42.7008-43.264-59.8016-75.2128-54.3744-84.992 7.7568-14.0288 66.8928-11.52 157.3888 16.256 99.456 30.5152 226.4064 86.7328 355.6096 158.3616 129.2032 71.6032 244.1472 149.4784 322.7392 217.6512 71.5008 62.0288 104.96 110.848 97.1776 124.8768-6.4768 11.6736-52.5568 12.2112-125.696-7.168l-29.0048 36.224z"  horiz-adv-x="1024" />

    
    <glyph glyph-name="xianhua" unicode="&#58945;" d="M530.8672-106.7008c0-11.776-8.0896-21.2992-18.1248-21.2992-10.0096 0-29.5936 9.472-29.5936 21.1968l-2.56 94.1312c-7.168 10.6752-14.592 21.0944-22.4 31.0784-3.712 4.7616-7.424 9.1136-11.136 13.312-49.024 47.0528-63.5392 10.2144-123.392-0.9216a116.992 116.992 0 0 0-6.7072-0.7168c-60.2368-4.7872-114.944 33.6896-159.872 75.648a10.3424 10.3424 0 0 0-2.5088 12.16 9.9072 9.9072 0 0 0 3.4816 5.7856c21.8624 27.9808 53.1456 50.1248 84.6336 59.52 71.3984 21.3248 129.6384-31.8208 169.472-94.72 12.16-6.3232 23.3984-14.4384 33.8432-23.8848l-0.4352 0.256c6.8096-5.6064 18.8672-17.5616 34.944-39.2192l-0.4608 193.1776c-0.0512 37.7088 47.6672 37.12 47.744-0.8448l0.3328-136.0128c25.1648 39.552 43.7504 58.752 52.9152 66.3808a5.6064 5.6064 0 0 0-0.4608-0.2304 163.7888 163.7888 0 0 0 33.7408 24.192c39.6032 63.616 97.6384 117.4528 169.1136 96.2304 31.5136-9.3696 62.8736-31.5648 84.864-59.6992a10.0608 10.0608 0 0 0 3.5072-5.8368 10.5216 10.5216 0 0 0-2.4576-12.288c-44.7488-42.496-99.328-81.4848-159.5648-76.928a153.0368 153.0368 0 0 0-6.7328 0.6912c-59.8784 11.008-74.5472 48.128-123.392 0.4608-3.6864-4.224-7.3728-8.6528-11.0848-13.4656a524.544 524.544 0 0 1-39.2448-58.8288c-0.3328-0.5632-0.768-0.8192-1.1264-1.28l2.6624-148.0448zM627.6608 896c-7.4496-19.8656-10.9056-41.9328-12.9024-63.3344-44.5184-13.312-121.984-38.9888-163.2512-60.4928a430.592 430.592 0 0 1-32.0512 29.2608C468.864 843.008 563.712 877.312 627.6608 896z m-204.5696-134.4768c-32.2048-19.072-107.4688-79.872-119.296-94.1312 6.912 41.1904 9.984 94.3104 4.736 135.9104a316.544 316.544 0 0 1-9.4464 48.4352c41.344-21.5296 90.3424-56.8576 124.0064-90.2144z m-166.8096-409.3952c-74.8288 88.96 14.7968 243.1232 87.0912 306.816 95.8464 84.4288 218.5472 133.6064 348.8768 162.2016-25.9584-33.28-33.664-89.4976-23.5264-133.9392 12.2624-53.5296 50.4832-97.792 66.5856-150.1184 14.336-46.5664 24.1408-99.4304 5.248-146.2272-17.9712-44.544-61.0048-71.68-108.032-86.0928-68.8896-21.1712-147.584-23.9872-219.3152-17.0752-56.2432 5.4272-120.32 20.992-156.928 64.4352z"  horiz-adv-x="1024" />

    
    <glyph glyph-name="baojianpin" unicode="&#58946;" d="M486.4 307.2h-102.4v-76.8h102.4v-102.4h76.8v102.4h102.4v76.8h-102.4v102.4h-76.8v-102.4zM230.4 844.6464C230.4 873.0112 253.184 896 281.3696 896H742.656C770.7904 896 793.6 873.2928 793.6 844.6464v-76.4928C793.6 739.7888 770.816 716.8 742.6304 716.8H281.344C253.2096 716.8 230.4 739.5072 230.4 768.1536V844.6464z m-102.4-409.6c0 56.6528 30.464 136.8576 68.1216 179.2256L241.7408 665.6h540.288l46.0288-51.712C865.5872 571.8016 896 491.8784 896 435.072v-460.4928A102.4 102.4 0 0 0 793.6-128H230.4c-56.576 0-102.4 45.7472-102.4 102.5536V435.0464z"  horiz-adv-x="1024" />

    
    <glyph glyph-name="shuma" unicode="&#58947;" d="M304 313.6A208 208 0 0 1 512 105.6a208 208 0 0 1 208 208A208 208 0 0 1 512 521.6a208 208 0 0 1-208-208zM960 665.6h-224C720 729.6 704 793.6 640 793.6H384c-64 0-80-64-96-128H64A64.1792 64.1792 0 0 1 0 601.6V25.6c0-35.2 28.8-64 64-64h896c35.2 0 64 28.8 64 64V601.6c0 35.2-28.8 64-64 64zM512 29.5936c-156.8512 0-284.0064 127.1296-284.0064 284.0064 0 156.8768 127.1296 284.0064 284.0064 284.0064 156.8768 0 284.0064-127.1296 284.0064-284.0064 0-156.8768-127.1296-284.0064-284.0064-284.0064zM960 473.6h-128V537.6h128v-64z"  horiz-adv-x="1024" />

    
    <glyph glyph-name="jiadian" unicode="&#58948;" d="M503.7056 896C282.0608 896 102.4 716.3392 102.4 494.6944c0-221.6448 179.6608-401.3056 401.3056-401.3056 221.6448 0 401.3056 179.6608 401.3056 401.3056C905.0112 716.3392 725.3504 896 503.7056 896z m32.512-80.4352c76.6976 40.2944 156.8512-70.2208 156.8512-156.8512s-84.224-204.0576-156.8512-156.8512c-21.3248 13.8752-9.7024 13.824-9.7024 100.4544s-76.544 167.9616 9.7024 213.248zM216.9856 354.816c-73.2416 46.2592-17.6128 170.9312 57.3952 214.272 75.008 43.2896 218.8544 29.0816 214.272-57.4208-1.3568-25.3952-7.1168-15.3088-82.1504-58.624-75.008-43.3152-107.1872-150.272-189.5168-98.2272z m559.6672-37.4528c-3.456-86.5536-139.2384-100.736-214.272-57.4208-75.008 43.3152-134.6048 174.976-57.3952 214.272 22.656 11.52 16.8192 1.4848 91.8272-41.8304s183.7312-17.7152 179.84-115.0208z m-163.84-368.7936a25.3184 25.3184 0 0 0-25.344 27.2896c0.2048 2.6112 0.3328 5.2736 0.3328 7.9616 0 48.3328-37.632 87.5264-84.096 87.5264-46.4384 0-84.096-39.1936-84.096-87.5264 0-2.688 0.128-5.3504 0.3584-7.9616a25.3184 25.3184 0 0 0-25.344-27.2896h-104.3456a25.4208 25.4208 0 0 1-25.4208-25.4208v-25.728c0-14.0288 11.392-25.4208 25.4208-25.4208h426.8544a25.4208 25.4208 0 0 1 25.4208 25.4208v25.728a25.4208 25.4208 0 0 1-25.4208 25.4208h-104.32z"  horiz-adv-x="1024" />

    
    <glyph glyph-name="zhiniaoku" unicode="&#58949;" d="M161.8944 615.2192c96.3072-18.816 213.6576-27.648 350.9248-27.648 138.368 0 254.6176 8.832 350.9248 27.648 80.8192 14.4128 122.88 29.9008 125.1072 45.3888-2.2272 15.5136-44.288 31.0016-125.1072 45.3888-96.3072 18.8416-212.5568 27.6736-350.9248 27.6736-137.2672 0-254.6176-8.832-350.9248-27.648-80.8192-14.4128-122.88-29.9008-126.208-45.4144 3.328-15.488 45.3888-30.976 126.208-45.3888z m601.088-375.296c-35.4048-45.3632-58.6752-102.912-70.8352-172.672l1.1008-2.2272c69.76 36.5312 124.0064 74.1888 162.7392 112.9216 50.944 50.944 89.6768 109.5936 115.1232 174.9248l-5.5296 2.2016c-100.736-28.7744-168.2688-67.5328-202.5728-115.1232zM179.6096 295.3216c-39.8336 24.3456-86.8864 34.304-121.1904 43.1872h-6.1184c19.9424-53.1456 55.3728-106.2912 107.392-158.3104a747.392 747.392 0 0 1 152.7808-115.1488c-29.9008 117.3504-74.1888 193.7408-132.864 230.272z m835.84 77.4912l-5.5552-15.488c-23.2448-73.0624-66.432-140.5952-129.536-204.8-63.0784-62.0032-132.8384-104.064-208.128-125.1072-50.9184-22.144-100.736-36.5312-149.4272-40.96-5.5296-1.1008-9.984-1.1008-15.488-1.1008a274.688 274.688 0 0 0-52.0448 1.1008c-37.632 3.328-133.9392 36.5312-133.9392 36.5312-60.9024 25.472-124.0064 69.76-185.984 132.864-64.2048 63.104-104.064 125.0816-120.6784 187.0592l-4.4288 13.312-2.8928 87.0912-0.4096 12.544-6.656 204.8c1.1008 37.632 64.2048 66.4064 190.4128 85.248C285.8752 761.344 393.216 768 512.8192 768c113.9968 0 216.96-6.656 309.9648-19.9168 122.88-17.7152 189.312-44.288 199.2704-78.592l-6.656-296.704z"  horiz-adv-x="1024" />

    
    <glyph glyph-name="naifen" unicode="&#58950;" d="M365.952 624.9216c202.112 0 365.952 60.672 365.952 135.552C731.904 835.328 568.064 896 365.952 896S0 835.328 0 760.4736c0-74.8544 163.84-135.552 365.952-135.552zM317.952 836.096l49.3568-146.7904c21.9392-2.5344 43.8784-3.7888 65.792-3.7888 19.4304 0 40.2944 1.024 62.6688 3.1488a308.1728 308.1728 0 0 1 65.1776 13.312c22.784 6.7328 42.5984 14.336 59.4688 22.784 16.896 8.4224 28.4672 17.4848 34.816 27.1872 6.3232 9.7024 6.3232 19.6096 0 29.7472-6.3488 10.112-22.1696 20.224-47.4624 30.3616a380.416 380.416 0 0 1-86.7072 22.784 690.944 690.944 0 0 1-85.4016 6.9632 764.288 764.288 0 0 1-72.1408-1.8944c-21.0944-1.6896-36.2752-2.9696-45.568-3.8144z m49.3568-279.68c-19.4048 0-40.064 1.28-62.0032 3.8144a1910.528 1910.528 0 0 0-63.2832 6.9632 652.2368 652.2368 0 0 0-72.1152 13.2864 367.6928 367.6928 0 0 0-65.8176 19.6096c-19.4048 8.0128-35.84 15.8208-49.3568 23.3984A1260.4416 1260.4416 0 0 0 13.0048 650.0352v-601.088c0-5.0688-0.2304-11.8272-0.64-20.2752-0.4352-8.448 0.64-17.0752 3.1744-25.9328 2.5088-8.8576 7.5776-17.5104 15.1808-25.9328 7.5776-8.448 18.9696-16.0512 34.1504-22.784 32.9216-15.1808 75.7248-29.5424 128.4608-43.0336 52.736-13.4912 110.7456-20.224 174.0032-20.224 29.5424 0 59.904 2.0736 91.136 6.2976a1055.744 1055.744 0 0 1 89.216 15.8208 740.5312 740.5312 0 0 1 75.9296 20.8896c22.3488 7.5776 39.424 15.1808 51.2512 22.784a197.632 197.632 0 0 1 27.8272 20.864c6.7584 6.3232 11.5968 14.1312 14.5664 23.424 2.944 9.2672 4.6336 20.4544 5.0432 33.536 0.4352 13.056 0.64 29.7472 0.64 49.9712V650.0352c-15.1808-11.776-33.3312-22.784-54.4-32.896-18.5856-9.2672-41.1392-18.3552-67.712-27.2128s-57.6-15.8208-93.0304-20.864a1166.08 1166.08 0 0 0-67.072-8.8576c-17.7152-1.6896-32.0512-2.9696-43.008-3.8144a179.712 179.712 0 0 0-30.3872 0zM924.16 693.0944c-9.2672 0-19.2-2.3296-29.7216-6.9888a114.5856 114.5856 0 0 1-31.0272-20.864c-10.112-9.2928-18.7648-21.2992-25.9328-36.096-7.168-14.7456-11.1872-32.6656-12.032-53.76-1.6896-18.56-0.8448-34.5856 2.56-48.1024 3.3536-13.4912 7.5776-24.6784 12.6464-33.536 5.0432-8.8576 10.112-16.0256 15.1808-21.504 5.0688-5.4784 8.8576-9.0624 11.392-10.752 7.5776-5.888 15.1808-10.1376 22.784-12.672 4.1984-2.5088 8.4224-4.1984 12.6464-5.0432v-401.152c0-21.12 7.168-32.0768 21.504-32.9216 15.1808 0 22.784 10.5472 22.784 31.6416v401.152c5.0688 0.8448 10.5472 2.56 16.4608 5.0688 10.9568 4.224 21.9392 12.2368 32.896 24.064 5.0688 5.888 10.112 14.9504 15.1808 27.1872a167.68 167.68 0 0 1 10.752 39.8592 181.76 181.76 0 0 1 0.64 45.568 135.8592 135.8592 0 0 1-13.9264 46.8224c-14.336 28.672-28.8768 46.1824-43.648 52.5056-14.7712 6.3488-28.4672 9.4976-41.1392 9.4976z"  horiz-adv-x="1024" />

    
    <glyph glyph-name="shipin" unicode="&#58951;" d="M682.752 472.4736l-2.0736 0.0512c-12.288-60.8256-83.1488-107.4688-168.6784-107.4688-73.0368 0-135.3472 33.9968-159.6672 81.8176-26.4192-44.4672-86.4-75.52-156.16-75.52-94.208 0-170.5728 56.576-170.5728 126.3616 0 8.2432 1.0752 16.3328 3.1232 24.1408C51.072 725.9136 258.3552 870.4 512 870.4c251.5712 0 456.96-158.4384 481.9968-361.9328 2.8928-9.5232 4.4032-19.4816 4.4032-29.696 0-69.7856-70.7072-126.3616-157.9264-126.3616-84.5824 0-153.6512 53.2224-157.7216 120.064z m208.3328-157.6448l-83.3024-360.96c-6.3488-27.5968-34.5088-49.9456-62.976-49.9456H279.1936c-28.416 0-56.6272 22.4512-62.976 49.9456l-88.576 383.8976c20.9664-6.8352 44.1344-10.624 68.5056-10.624 66.5856 0 124.2624 28.2624 152.3712 69.504h7.1168c26.3168-44.6208 86.4256-75.8272 156.3648-75.8272 69.9392 0 130.048 31.2064 156.3648 75.8272h21.4272c20.1216-51.2768 79.9744-88.448 150.6816-88.448 17.7152 0 34.7136 2.3296 50.6112 6.6304zM622.1568 711.936c0.2048 0 1.024 0.128 2.4064 0.2304 16.4864 1.28 38.8352-0.6144 64.896-8.3456 39.5776-11.7248 78.8224-34.7136 115.84-71.8592 22.6048-22.6816 43.8528-50.176 63.4112-82.8928a18.944 18.944 0 0 1 32.512 19.456c-21.12 35.328-44.2368 65.28-69.0944 90.1888-41.5488 41.728-86.3232 67.9424-131.8912 81.4592-30.7968 9.1392-57.7536 11.392-78.6176 9.7792a77.6192 77.6192 0 0 1-4.992-0.512 18.944 18.944 0 0 1 5.5296-37.504zM493.056 238.7712c0 10.4192 8.3968 18.8928 18.944 18.8928 10.4704 0 18.944-8.2688 18.944-18.8928v-271.744a18.8672 18.8672 0 0 0-18.944-18.8928 18.816 18.816 0 0 0-18.944 18.8928V238.7712z m183.3216 1.3056a18.8672 18.8672 0 0 0 21.4016 16.0768 18.816 18.816 0 0 0 16.128-21.3504L676.096-34.2784a18.8672 18.8672 0 0 0-21.4016-16.0768 18.816 18.816 0 0 0-16.128 21.3504l37.8112 269.0816z m-366.2848-5.2736a18.8672 18.8672 0 0 0 16.128 21.3504 18.816 18.816 0 0 0 21.4016-16.0768l37.8112-269.0816a18.8672 18.8672 0 0 0-16.128-21.3504 18.816 18.816 0 0 0-21.4016 16.0768l-37.8112 269.0816z"  horiz-adv-x="1024" />

    
    <glyph glyph-name="xianlianggou" unicode="&#58952;" d="M908.032 552.448c0 25.8048-13.056 48.5376-32.896 62.0544L560.4352 878.4896A59.9552 59.9552 0 0 1 517.9904 896c-15.3344 0-30.6944-5.8368-42.4192-17.4848L160.896 614.5024A74.9056 74.9056 0 0 1 128 552.448l0.2304-605.44A75.008 75.008 0 0 1 203.2384-128h630.016a75.008 75.008 0 0 1 75.008 75.008l-0.2304 605.44zM416.6912 40.7552l42.2144 127.232 23.1424 69.7344-73.344 4.4032-85.6832 5.1712 309.4016 307.456-58.2912-164.4544-28.2112-79.5648 84.3008 4.3264 65.4592 3.328-278.9888-277.632z"  horiz-adv-x="1024" />

    
    <glyph glyph-name="meizhuanggehu" unicode="&#58953;" d="M522.9824 8.5248c178.0736 0 312.064 107.776 312.064 224.3072 0 116.5568-133.9904 224.3072-312.064 224.3072-178.0992 0-312.064-107.776-312.064-224.3072 0-116.5312 133.9648-224.3072 312.064-224.3072z m0-136.5248C275.2-128 74.368 33.536 74.368 232.832c0 199.296 200.832 360.832 448.6144 360.832 247.7568 0 448.5888-161.536 448.5888-360.832C971.5712 33.5616 770.7392-128 523.008-128z m170.4704 517.8368c68.1728-35.2512 112.3328-91.6992 112.3328-155.3408 0-106.8032-124.416-193.408-277.9392-193.408a380.416 380.416 0 0 0-119.9616 18.8928l285.568 329.856zM444.9536 642.432h156.032v-58.5216h-156.032zM522.9824 622.9248c274.688 0 497.3568 61.1328 497.3568 136.5504C1020.3392 834.8672 797.696 896 523.008 896S25.6 834.8672 25.6 759.4752c0-75.4176 222.6688-136.5504 497.3824-136.5504z m0 42.5728c193.8944 0 351.0784 42.8544 351.0784 95.744 0 52.8896-157.184 95.744-351.0784 95.744-193.92 0-351.104-42.8544-351.104-95.744 0-52.8896 157.184-95.744 351.104-95.744z"  horiz-adv-x="1024" />

    
    <glyph glyph-name="jiafang" unicode="&#58954;" d="M828.8 108.8256c0 14.1312-11.52 25.5744-25.6 25.5744H220.7744a25.6 25.6 0 0 1-25.6-25.5744v-64.0512a25.5232 25.5232 0 0 0-25.7536-25.5744H76.9536A25.6256 25.6256 0 0 0 51.2 44.7232v150.528c0 14.1056 11.648 25.5488 25.6 25.5488h870.4c14.1312 0 25.6-11.4176 25.6-25.5232v-150.528c0-14.1056-11.2896-25.5488-25.7536-25.5488h-118.2464v89.6256zM515.6096 497.1008c134.0928 0 219.5968-8.0896 256.512-23.3984 44.0832-17.9968 90.88-60.3136 122.368-99.8912A716.9024 716.9024 0 0 0 972.8 249.6H51.2c4.5056 10.8032 10.8032 21.6064 40.4992 67.5072 15.3088 22.5024 29.696 43.1872 45.0048 62.1056 29.696 38.6816 76.4928 80.9984 115.2 94.464 42.2912 15.3344 129.5872 23.424 263.68 23.424z m341.9904 26.112c0 16.1792-10.8032 30.592-32.4096 43.1872 0 0.896-0.896 2.688-0.896 3.584 2.7136 3.6096 4.5056 7.2192 4.5056 10.8288 0 11.6992-14.3872 22.4768-42.2912 30.592-27.904 8.0896-62.1056 12.5952-101.7088 12.5952-39.6032 0-73.8048-4.5056-101.7088-12.5952-27.904-8.1152-42.2912-18.8928-42.2912-30.592 0-3.6096 1.792-7.2192 4.5056-10.8032-2.7136-6.2976-4.5056-11.6992-4.5056-17.9968 0-5.4016 1.792-10.8032 4.5056-17.1008a105.3952 105.3952 0 0 1-66.6112 0c2.7136 6.2976 4.5056 11.6992 4.5056 17.1008 0 6.2976-1.792 11.6992-4.5056 17.9968 2.7136 3.584 4.5056 7.168 4.5056 10.8032 0 11.6992-14.3872 22.4768-42.2912 30.592-27.904 8.0896-62.1056 12.5952-101.7088 12.5952-39.6032 0-73.8048-4.5056-101.7088-12.5952-27.904-8.1152-42.2912-18.8928-42.2912-30.592 0-3.6096 1.792-7.2192 4.5056-10.8032 0-0.9216-0.896-2.7136-0.896-3.6096-21.6064-12.5952-32.4096-27.008-32.4096-43.1872 0-8.1152 2.688-15.3088 8.0896-22.528-24.2944-15.2832-36.8896-31.488-36.8896-49.4848H105.4208a25.472 25.472 0 0 0-25.4208 25.728V740.992C80 755.4048 91.6992 768 107.008 768h809.984c15.3088 0 27.008-12.5952 27.008-27.008V476.928c0-14.208-11.648-25.728-25.4208-25.728h-32.1792c0 17.9968-12.5952 34.2016-36.8896 49.5104 5.376 7.168 8.0896 14.3872 8.0896 22.5024z"  horiz-adv-x="1024" />

    
    <glyph glyph-name="wanju" unicode="&#58955;" d="M348.2112-9.728c19.968 98.7136 59.4432 165.4272 163.84 165.4272h61.44c70.6304 0 117.0432-83.7632 122.9312-165.4272H348.2112zM430.08 344.576v47.2576h204.8v-47.232h-204.8zM1024 132.0448c0 3.1744-20.096 46.848-20.5312 47.2576-92.928-28.6208-177.7152-233.088-204.7744 141.7472l80.7168-28.8256 87.6544 94.3872-86.272 52.8128-0.128 141.44c-42.1888 32.6144-53.12 70.8096-102.4 70.8096-113.3056 0-62.0544-165.4272-163.84-165.4272h-204.8768L217.088 896C172.672 860.8512 163.84 883.584 163.84 817.0752v-70.8096C119.2192 732.4672 0 637.6704 0 580.8384v-70.912c0-55.2704 33.9968-94.5152 81.8688-94.5152h40.9344c66.6112 0 15.4624 20.5312 102.4 47.2576l40.192-118.5024-85.5552-281.1648-151.9616 107.3152c-3.584-216.448 265.9328-298.2144 443.0336-298.2144h102.4C693.3504-127.8976 1024 15.872 1024 132.0192z"  horiz-adv-x="1024" />

    
    <glyph glyph-name="neiyi" unicode="&#58956;" d="M975.488 786.0992c2.304-134.2976-7.552-268.544 34.7136-400.7168 39.9616-124.928-19.3024-248.1408-22.784-372.992-0.9728-33.9712-32.8192-25.2928-54.0928-22.3488-111.9744 15.4368-224.896 17.1776-332.0576 68.5312-59.3408 28.416-133.2736 20.48-195.7376-20.7872-52.7872-34.8928-112.384-52.224-175.7184-48.2048-55.7312 3.5328-108.672-12.5952-163.2-16.64-13.824 3.2-26.752 7.8592-27.392 25.0112-5.4528 149.504-67.9424 293.4784-18.9184 449.792C49.792 541.696 9.1136 645.632 2.7648 745.216 1.536 764.1856-8.96 788.0448 20.992 795.6992c29.2352 7.424 31.8976-17.792 41.0368-34.8416 6.5024-75.008 14.208-149.888 19.0208-224.9984 2.6112-40.4992 21.7856-58.2656 60.5696-69.5808 111.3856-32.5376 208.384-92.1088 291.2512-173.312 31.5904-30.976 59.6736-65.4848 91.5712-100.864 103.3984 135.552 211.7376 244.9664 366.4384 295.2704 30.5664 9.9328 33.9456 32.5632 33.2032 59.3664-2.304 84.3776-4.096 168.8064-6.0928 253.184 27.9296 31.8464 45.8752 22.144 57.472-13.824z"  horiz-adv-x="1024" />

    
    <glyph glyph-name="xiangbao" unicode="&#58957;" d="M25.6 613.4528c0 28.416 22.4768 47.616 50.5344 43.1104 0 0 263.3728-46.7968 480.3072-46.7968S948.2752 653.824 948.2752 653.824C975.9488 659.9168 998.4 641.9968 998.4 613.4528v-536.7552A204.6464 204.6464 0 0 0 793.6-128H230.4c-113.1008 0-204.8 91.7248-204.8 204.6976V613.4528zM256 435.2a51.2 51.2 0 1 1 0 102.4 51.2 51.2 0 0 1 0-102.4z m512 0a51.2 51.2 0 1 1 0 102.4 51.2 51.2 0 0 1 0-102.4zM230.4 614.4h51.2v-128H230.4v128z m512 0h51.2v-128h-51.2v128z m0 0a230.4 230.4 0 0 1-460.8 0h460.8zM230.4 614.4C230.4 769.92 356.48 896 512 896s281.6-126.08 281.6-281.6"  horiz-adv-x="1024" />

    
    <glyph glyph-name="zhubao" unicode="&#58958;" d="M600.4224 613.9136l174.336 174.3104L666.9056 896H343.5776l-107.776-107.776 174.2848-174.3104C247.8592 571.6736 128 424.704 128 249.2672 128 40.9088 296.9088-128 505.2672-128s377.2672 168.9088 377.2672 377.2672c-0.0512 175.36-119.936 322.4064-282.112 364.6464z m-95.0528-632.7296c-147.9936 0-267.9552 120.0896-267.9552 268.2624 0 148.096 119.9616 268.2368 267.9552 268.2368 147.9936 0 267.9552-120.1152 267.9552-268.2368 0.0512-148.1728-119.9104-268.2624-267.9552-268.2624z"  horiz-adv-x="1024" />

    
    <glyph glyph-name="peishi" unicode="&#58959;" d="M627.121329-6.912432a116.222111 116.222111 0 0 0-9.599844-46.975236 123.748389 123.748389 0 0 0-26.034777-38.476175 123.748389 123.748389 0 0 0-38.476174-26.009177 116.222111 116.222111 0 0 0-46.949637-9.625444 116.222111 116.222111 0 0 0-46.949638 9.625444 117.015698 117.015698 0 0 0-37.912983 26.009177 129.021903 129.021903 0 0 0-25.445987 38.476175 116.222111 116.222111 0 0 0-9.625444 46.949637c0 33.945048 11.519813 62.437385 34.50824 85.425812 23.014026 23.014026 51.480763 34.508239 85.425812 34.508239 16.58853 0 32.255476-3.199948 46.949637-9.599844a129.021903 129.021903 0 0 0 38.476174-25.471586c10.931022-10.547029 19.609281-23.193223 26.034777-37.887385a116.222111 116.222111 0 0 0 9.599844-46.975236zM394.037117 763.583848c0-21.887644-8.089469-40.728938-24.319605-56.575081-16.230136-15.846143-35.276227-23.756414-57.138271-23.756414-22.630032 0-41.85532 7.910271-57.701463 23.756414s-23.756414 34.687436-23.756414 56.575081c0 22.630032 7.910271 41.85532 23.756414 57.701462a78.565123 78.565123 0 0 0 57.701463 23.756414c21.862045 0 40.908135-7.935871 57.138271-23.756414 16.230136-15.846143 24.319605-35.07143 24.319605-57.701462zM214.14884 676.468463c0-21.862045-7.935871-40.703339-23.782013-56.57508a78.565123 78.565123 0 0 0-57.701463-23.756414c-21.862045 0-40.908135 7.935871-57.138271 23.756414-16.204537 15.871742-24.319605 34.713036-24.319605 56.57508 0 22.630032 8.115068 41.880919 24.319605 57.727062 16.230136 15.820543 35.276227 23.756414 57.138271 23.756414 22.630032 0 41.880919-7.935871 57.701463-23.756414 15.871742-15.871742 23.782014-35.07143 23.782013-57.727062z m0-183.293021c0-22.630032-7.935871-41.85532-23.782013-57.701462a78.565123 78.565123 0 0 0-57.701463-23.756414c-21.862045 0-40.908135 7.935871-57.138271 23.756414A77.643538 77.643538 0 0 0 51.207488 493.175442c0 21.887644 8.115068 40.933735 24.319605 57.138271 16.230136 16.230136 35.276227 24.319605 57.138271 24.319605 22.630032 0 41.880919-8.089469 57.701463-24.319605 15.871742-16.204537 23.782014-35.250627 23.782013-57.138271z m46.386446-184.419403c0-22.630032-7.935871-41.880919-23.756414-57.701463a78.565123 78.565123 0 0 0-57.727062-23.782013c-22.630032 0-41.85532 7.935871-57.701462 23.782013a78.565123 78.565123 0 0 0-23.756414 57.701463c0 22.630032 7.935871 41.85532 23.756414 57.701462a78.565123 78.565123 0 0 0 57.701462 23.756414c22.630032 0 41.880919-7.935871 57.727062-23.756414 15.820543-15.846143 23.756414-35.07143 23.756414-57.701462z m93.899274-184.445003c0-21.862045-7.935871-40.908135-23.756414-57.138272-15.846143-16.204537-35.07143-24.319605-57.701462-24.319604a77.643538 77.643538 0 0 0-57.701462 24.319604c-15.846143 16.230136-23.756414 35.276227-23.756414 57.138272 0 22.630032 7.935871 41.880919 23.756414 57.701462a78.565123 78.565123 0 0 0 57.701462 23.782014c22.630032 0 41.85532-7.935871 57.701462-23.782014 15.846143-15.820543 23.756414-35.07143 23.756414-57.701462z m228.553086 691.342366c0-22.630032-8.089469-41.85532-24.319604-57.701463-16.204537-15.846143-35.250627-23.756414-57.138272-23.756414-22.630032 0-41.85532 7.910271-57.701462 23.756414a78.565123 78.565123 0 0 0-23.756414 57.701463c0 21.862045 7.935871 40.728938 23.756414 56.57508A78.565123 78.565123 0 0 0 501.52977 895.984896c21.887644 0 40.933735-7.935871 57.138272-23.756414 16.230136-15.846143 24.319605-34.713036 24.319604-56.57508z m31.692285-52.043955c0-21.887644 7.935871-40.728938 23.756414-56.57508 15.846143-15.846143 35.07143-23.756414 57.701463-23.756414 22.630032 0 41.880919 7.910271 57.727062 23.756414 15.820543 15.846143 23.756414 34.687436 23.756414 56.57508 0 22.630032-7.935871 41.85532-23.756414 57.701463a78.565123 78.565123 0 0 1-57.727062 23.756414c-22.630032 0-41.85532-7.935871-57.701463-23.756414a78.565123 78.565123 0 0 1-23.756414-57.701463z m178.761896-87.140984c0-21.862045 8.115068-40.703339 24.319604-56.57508 16.230136-15.820543 35.276227-23.756414 57.163871-23.756414 22.630032 0 41.85532 7.935871 57.701463 23.756414 15.846143 15.871742 23.756414 34.713036 23.756414 56.57508 0 22.630032-7.935871 41.880919-23.756414 57.727062a78.565123 78.565123 0 0 1-57.701463 23.756414c-21.887644 0-40.933735-7.935871-57.138271-23.756414a77.643538 77.643538 0 0 1-24.319605-57.727062z m0-183.293021c0-22.630032 8.115068-41.85532 24.319604-57.701462 16.230136-15.846143 35.276227-23.756414 57.163871-23.756414 22.630032 0 41.85532 7.935871 57.701463 23.756414 15.846143 15.846143 23.756414 35.07143 23.756414 57.701462 0 21.887644-7.935871 40.933735-23.756414 57.138271a77.643538 77.643538 0 0 1-57.701463 24.319605c-21.887644 0-40.933735-8.089469-57.138271-24.319605-16.230136-16.204537-24.319605-35.250627-24.319605-57.138271z m-45.234465-184.419403c0-22.630032 7.910271-41.880919 23.756414-57.701463 15.820543-15.871742 35.07143-23.782014 57.701462-23.782013 21.862045 0 40.728938 7.935871 56.575081 23.782013 15.846143 15.820543 23.756414 35.07143 23.756414 57.701463 0 22.630032-7.935871 41.85532-23.756414 57.701462-15.846143 15.846143-34.713036 23.756414-56.575081 23.756414-22.630032 0-41.880919-7.935871-57.701462-23.756414a78.565123 78.565123 0 0 1-23.756414-57.701462z m-93.924874-184.445003c0-21.862045 7.935871-40.908135 23.756414-57.138272 15.846143-16.204537 35.07143-24.319605 57.701462-24.319604 21.887644 0 40.728938 8.115068 56.575081 24.319604 15.871742 16.230136 23.756414 35.276227 23.756414 57.138272 0 22.630032-7.910271 41.880919-23.756414 57.701462-15.846143 15.871742-34.687436 23.782014-56.575081 23.782014-22.630032 0-41.85532-7.935871-57.701462-23.782014a78.565123 78.565123 0 0 1-23.756414-57.701462z"  horiz-adv-x="1024" />

    
    <glyph glyph-name="yongpin" unicode="&#58961;" d="M819.2 128v76.8h-153.6768A25.4976 25.4976 0 0 0 640 230.4c0 14.1312 11.5968 25.6 25.5232 25.6H819.2v76.8h-153.6768A25.4976 25.4976 0 0 0 640 358.4c0 14.1312 11.5968 25.6 25.5232 25.6H819.2v51.0208A153.5488 153.5488 0 0 1 665.7536 588.8H358.2464C273.5104 588.8 204.8 519.936 204.8 435.0208v-409.2416A153.5488 153.5488 0 0 1 358.2464-128h307.5072C750.4896-128 819.2-59.136 819.2 25.7792V76.8h-153.6768A25.4976 25.4976 0 0 0 640 102.4c0 14.1312 11.5968 25.6 25.5232 25.6H819.2zM587.776 806.528C663.3472 780.1856 716.8 715.5456 716.8 640H307.2c0 13.2352 1.6384 26.1632 4.7616 38.5792 14.6432 58.4448 61.9264 106.24 124.288 127.9488A76.8512 76.8512 0 0 0 512 896a76.8512 76.8512 0 0 0 75.7248-89.472z"  horiz-adv-x="1024" />

    
    <glyph glyph-name="wenti" unicode="&#58963;" d="M589.456344 271.133104c118.641822-34.274304 257.710004 10.853103 345.302736 122.967705 111.961021 143.291677 97.370764 341.795955-32.610503 443.339021-129.95567 101.543066-326.10503 67.678312-438.066051-75.613364-65.886527-84.367518-87.95109-187.830354-68.420624-279.41621-13.694364-175.262256-108.582224-250.773233-108.582224-250.773233l-232.880971-232.88097a51.065898 51.065898 0 0 1-0.102388-72.516135l0.435148-0.409551c20.042405-20.042405 52.448132-19.965614 72.490538 0.102388l232.880971 232.880971s105.152234 94.964652 229.553368 112.319378z m-181.047165-12.952053c-26.083283-16.638012-32.661697-9.95721-15.358165 15.665328 0 0 47.53352 58.74498 47.53352 106.048128 8.446991-18.225022 29.487676-59.07774 79.171339-79.24813-66.321675-5.682521-111.346694-42.490922-111.346694-42.490923z"  horiz-adv-x="1024" />

    
    <glyph glyph-name="tishi" unicode="&#59162;" d="M512 384m-512 0a512 512 0 1 1 1024 0 512 512 0 1 1-1024 0ZM477.866667 759.466667c-40.96 0-68.266667-27.306667-68.266667-68.266667v-34.133333c0-40.96 27.306667-68.266667 68.266667-68.266667h68.266666c40.96 0 68.266667 27.306667 68.266667 68.266667v34.133333c0 40.96-27.306667 68.266667-68.266667 68.266667h-68.266666z m0-259.413334c-40.96 0-68.266667-27.306667-68.266667-68.266666v-286.72c0-40.96 27.306667-68.266667 68.266667-68.266667h68.266666c40.96 0 68.266667 27.306667 68.266667 68.266667v286.72c0 40.96-27.306667 68.266667-68.266667 68.266666h-68.266666z"  horiz-adv-x="1024" />

    
    <glyph glyph-name="yunyingguize" unicode="&#58969;" d="M490.666667-21.333333c-235.264 0-426.666667 191.402667-426.666667 426.666666s191.402667 426.666667 426.666667 426.666667 426.666667-191.402667 426.666666-426.666667-191.402667-426.666667-426.666666-426.666666z m21.333333 384c-82.346667 0-149.333333-50.176-149.333333-111.829334 0-53.077333 104.448-58.837333 149.333333-58.837333 44.928 0 149.333333 5.76 149.333333 58.837333 0 62.72-65.578667 111.829333-149.333333 111.829334z m0 256c-58.794667 0-106.666667-47.872-106.666667-106.666667s47.872-106.666667 106.666667-106.666667c58.837333 0 106.666667 47.872 106.666667 106.666667S570.837333 618.666667 512 618.666667zM490.666667 810.666667c223.488 0 405.333333-181.845333 405.333333-405.333334S714.154667 0 490.666667 0 85.333333 181.845333 85.333333 405.333333 267.178667 810.666667 490.666667 810.666667m21.333333-426.666667c-95.701333 0-170.666667-58.496-170.666667-133.162667C341.333333 181.077333 448.256 170.666667 512 170.666667s170.666667 10.410667 170.666667 80.170666C682.666667 325.504 607.701333 384 512 384c70.570667 0 128 57.429333 128 128s-57.429333 128-128 128-128-57.429333-128-128 57.429333-128 128-128m-21.333333 469.333333C243.242667 853.333333 42.666667 652.757333 42.666667 405.333333S243.242667-42.666667 490.666667-42.666667 938.666667 157.909333 938.666667 405.333333 738.090667 853.333333 490.666667 853.333333z m21.333333-426.666666a85.333333 85.333333 0 1 0-0.042667 170.624A85.333333 85.333333 0 0 0 512 426.666667z m0-213.333334c-64 0-128 12.501333-128 37.504C384 300.8 441.301333 341.333333 512 341.333333s128-40.533333 128-90.496c0-25.002667-64-37.504-128-37.504zM469.333333 832.213333c0 11.648 9.898667 21.12 21.333334 21.12 11.776 0 21.333333-9.216 21.333333-21.12v-85.717333a21.461333 21.461333 0 0 0-21.333333-21.162667 21.077333 21.077333 0 0 0-21.333334 21.12v85.76z m0-768c0 11.648 9.898667 21.12 21.333334 21.12 11.776 0 21.333333-9.216 21.333333-21.12v-85.717333a21.461333 21.461333 0 0 0-21.333333-21.162667 21.077333 21.077333 0 0 0-21.333334 21.12v85.76zM917.546667 426.666667c11.648 0 21.12-9.898667 21.12-21.333334 0-11.776-9.216-21.333333-21.12-21.333333h-85.717334a21.461333 21.461333 0 0 0-21.162666 21.333333c0 11.776 9.216 21.333333 21.12 21.333334h85.76z m-768 0c11.648 0 21.12-9.898667 21.12-21.333334 0-11.776-9.216-21.333333-21.12-21.333333h-85.76A21.461333 21.461333 0 0 0 42.666667 405.333333c0 11.776 9.216 21.333333 21.12 21.333334h85.76z"  horiz-adv-x="1024" />

    
    <glyph glyph-name="beibeilogo" unicode="&#59163;" d="M50.269091 193.163636H16.756364v25.134546h34.443636c7.447273 0 13.032727-5.585455 13.032727-13.032727-0.930909-6.516364-6.516364-12.101818-13.963636-12.101819z m-33.512727 67.025455H46.545455c7.447273 0 13.032727-5.585455 13.032727-13.032727s-5.585455-13.032727-13.032727-13.032728H16.756364v26.065455z m52.130909-31.650909c4.654545 5.585455 7.447273 13.032727 7.447272 20.48-1.861818 15.825455-14.894545 27.927273-29.78909 27.927273H0v-89.367273c0-5.585455 4.654545-11.170909 11.170909-11.170909h39.098182c15.825455 0 28.858182 12.101818 29.789091 26.996363 0 10.24-3.723636 19.549091-11.170909 25.134546zM93.090909 248.08727299999998v-41.890909c0-15.825455 13.032727-28.858182 28.858182-28.858182h41.890909v15.825454h-41.890909c-7.447273 0-13.032727 5.585455-13.032727 13.032728v13.032727h54.923636v16.756364h-54.923636v13.032727c0 7.447273 5.585455 13.032727 13.032727 13.032727h41.890909v14.894546h-41.890909c-15.825455 0-28.858182-13.032727-28.858182-28.858182M195.490909 177.33818199999996h16.756364V276.94545500000004H195.490909zM292.305455 193.163636h-34.443637v25.134546h34.443637c7.447273 0 13.032727-5.585455 13.032727-13.032727 0-6.516364-5.585455-12.101818-13.032727-12.101819z m-33.512728 67.025455H288.581818c7.447273 0 13.032727-5.585455 13.032727-13.032727s-5.585455-13.032727-13.032727-13.032728h-30.72l0.930909 26.065455z m52.130909-31.650909c4.654545 5.585455 7.447273 13.032727 7.447273 20.48-1.861818 15.825455-14.894545 27.927273-29.789091 27.927273h-46.545454v-89.367273c0-5.585455 4.654545-11.170909 11.170909-11.170909h39.098182c15.825455 0 28.858182 12.101818 29.78909 26.996363 0 10.24-3.723636 19.549091-11.170909 25.134546zM335.127273 248.08727299999998v-41.890909c0-15.825455 13.032727-28.858182 28.858182-28.858182h41.890909v15.825454h-41.890909c-7.447273 0-13.032727 5.585455-13.032728 13.032728v13.032727h54.923637v16.756364h-54.923637v13.032727c0 7.447273 5.585455 13.032727 13.032728 13.032727h41.890909v14.894546h-41.890909c-15.825455 0-28.858182-13.032727-28.858182-28.858182M437.527273 177.33818199999996h16.756363V276.94545500000004H437.527273zM902.050909 215.50545499999998c0-13.032727-10.24-24.203636-24.203636-24.203637-13.032727 0-24.203636 10.24-24.203637 24.203637v61.44H837.818182v-61.44c0-22.341818 17.687273-40.029091 40.029091-40.029091s40.029091 17.687273 40.029091 40.029091v61.44h-16.756364l0.930909-61.44zM649.774545 260.18909099999996H679.563636c7.447273 0 13.032727-5.585455 13.032728-13.032727s-5.585455-13.032727-13.032728-13.032728h-30.72v26.065455h0.930909z m59.578182-12.101818c0 15.825455-13.032727 28.858182-28.858182 28.858182h-46.545454v-99.607273h16.756364v40.96H670.254545l22.341819-40.96h18.618181l-23.272727 41.890909c12.101818 2.792727 21.410909 14.894545 21.410909 28.858182zM986.763636 235.05454499999996h-30.72v26.065455h30.72c7.447273 0 13.032727-5.585455 13.032728-13.032727 0-7.447273-5.585455-13.032727-13.032728-13.032728m0 41.89091h-46.545454v-99.607273h16.756363v40.96h30.72c15.825455 0 28.858182 13.032727 28.858182 28.858182 0 16.756364-13.032727 29.789091-29.789091 29.789091M797.789091 219.22909100000004c0-14.894545-12.101818-26.996364-26.996364-26.996364s-26.996364 12.101818-26.996363 26.996364v13.963636c0 14.894545 12.101818 26.996364 26.996363 26.996364s26.996364-12.101818 26.996364-26.996364v-13.963636z m-27.927273 57.716364c-24.203636 0-43.752727-19.549091-43.752727-43.752728v-13.963636c0-24.203636 19.549091-43.752727 43.752727-43.752727s43.752727 19.549091 43.752727 43.752727v13.963636c0 24.203636-19.549091 43.752727-43.752727 43.752728zM601.367273 234.12363600000003H567.854545v-16.756363h27.927273v-24.203637h-29.789091c-10.24 0-18.618182 8.378182-18.618182 18.618182v30.72c0 10.24 8.378182 18.618182 18.618182 18.618182h45.614546v15.825455h-45.614546c-19.549091 0-34.443636-15.825455-34.443636-34.443637v-30.72c0-19.549091 15.825455-34.443636 34.443636-34.443636h35.374546c5.585455 0 11.170909 4.654545 11.170909 11.170909v36.305454c-0.930909 4.654545-5.585455 9.309091-11.170909 9.309091M746.589091 549.701818v27.927273H670.254545l-6.516363 15.825454h-34.443637l6.516364-15.825454h-63.301818c0.930909 6.516364 1.861818 11.170909 2.792727 15.825454H539.927273c-2.792727-15.825455-9.309091-40.029091-27.927273-53.061818v-39.098182c8.378182 2.792727 15.825455 6.516364 22.341818 12.101819v-65.163637c0-12.101818 10.24-22.341818 22.341818-22.341818l190.836364-0.930909v29.789091H670.254545V467.781818h76.334546v27.927273H670.254545v13.032727h76.334546v27.927273H670.254545v13.032727h76.334546zM635.810909 454.749091h-67.025454V467.781818h67.025454v-13.032727z m0 40.96h-67.025454v13.032727h67.025454V495.709091z m0 40.96h-67.025454v13.032727h67.025454v-13.032727zM526.894545 333.730909h37.236364c5.585455 15.825455 9.309091 31.650909 11.170909 45.614546h37.236364v-45.614546h34.443636v45.614546h37.236364c1.861818-14.894545 5.585455-29.789091 11.170909-45.614546h37.236364c-7.447273 15.825455-12.101818 31.650909-13.963637 45.614546h28.858182v27.927272H647.912727v9.309091h-34.443636v-8.378182H512v-27.927272h28.858182c-1.861818-14.894545-6.516364-30.72-13.963637-46.545455M296.029091 505.949091c0 28.858182 30.72 53.061818 67.956364 53.061818 38.167273 0 67.956364-24.203636 67.956363-53.061818v-86.574546h35.374546v86.574546c0 48.407273-46.545455 87.505455-103.330909 87.505454S260.654545 554.356364 260.654545 505.949091v-86.574546h35.374546v86.574546zM471.04 370.967273c-47.476364 0-85.643636 38.167273-85.643636 84.712727v44.683636h-35.374546v-44.683636c0-46.545455-38.167273-84.712727-85.643636-84.712727H260.654545v-35.374546h3.723637c43.752727 0 81.92 23.272727 103.330909 57.716364 21.410909-34.443636 59.578182-57.716364 103.330909-57.716364h3.723636v35.374546h-3.723636zM35.374545 505.949091c0 28.858182 30.72 53.061818 67.956364 53.061818 38.167273 0 67.956364-24.203636 67.956364-53.061818v-86.574546h35.374545v86.574546c0 48.407273-46.545455 87.505455-103.330909 87.505454S0 554.356364 0 505.949091v-86.574546h35.374545v86.574546zM210.385455 370.967273c-47.476364 0-85.643636 38.167273-85.643637 84.712727v44.683636H89.367273v-44.683636c0-46.545455-38.167273-84.712727-85.643637-84.712727H0v-35.374546h3.723636c43.752727 0 81.92 23.272727 103.330909 57.716364 21.410909-34.443636 59.578182-57.716364 103.33091-57.716364h3.723636v35.374546h-3.723636zM839.68 562.734545c-9.309091 0-17.687273-7.447273-17.687273-17.687272v-158.254546c0-9.309091 7.447273-17.687273 17.687273-17.687272H968.145455c9.309091 0 17.687273 7.447273 17.687272 17.687272v158.254546c0 9.309091-7.447273 17.687273-17.687272 17.687272H839.68zM968.145455 338.385455H839.68c-26.996364 0-48.407273 21.410909-48.407273 48.407272v158.254546c0 26.996364 21.410909 48.407273 48.407273 48.407272H968.145455c26.996364 0 48.407273-21.410909 48.407272-48.407272v-158.254546c0-26.065455-22.341818-48.407273-48.407272-48.407272zM954.181818 521.774545v25.134546h-29.789091v-25.134546H828.509091v-30.72h43.752727c-4.654545-27.927273-20.48-57.716364-42.821818-77.265454l20.48-22.341818c27.927273 25.134545 48.407273 63.301818 53.061818 100.538182h21.410909v-59.578182c0-10.24-8.378182-18.618182-18.618182-18.618182h-11.170909V384h11.170909c26.996364 0 48.407273 21.410909 48.407273 48.407273v58.647272h14.894546v30.72h-14.894546z"  horiz-adv-x="1024" />

    
    <glyph glyph-name="liuliang" unicode="&#58972;" d="M409.6 755.2v-332.8h204.8V755.2H409.6z m-12.8 12.8h230.4v-358.4H396.8V768z m12.8-332.8L229.4016 114.8544C201.7152 65.6256 225.024 25.6 281.5616 25.6h460.8768c56.6144 0 79.8848 39.9616 52.1472 89.2544L614.4 435.2H409.6z m-7.488 12.8h219.776l183.8592-326.8736c32.5376-57.8432 3.072-108.3264-63.3088-108.3264H281.5616c-66.304 0-95.808 50.5472-63.3088 108.3264L402.112 448zM614.4 435.2V668.928s-78.6304-4.3392-113.5872-22.272S409.6 668.928 409.6 668.928V435.2L229.4016 114.8544C201.7152 65.6256 225.024 25.6 281.5616 25.6h460.8768c56.6144 0 79.8848 39.9616 52.1472 89.2544L614.4 435.2z"  horiz-adv-x="1024" />

    
    <glyph glyph-name="yingxiaotuiguang" unicode="&#58974;" d="M716.8 153.664A51.0848 51.0848 0 0 0 767.872 204.8h205.056A51.1232 51.1232 0 0 0 1024 153.664v-128.128A51.0848 51.0848 0 0 0 972.928-25.6H767.872A51.1232 51.1232 0 0 0 716.8 25.536v128.128zM121.6 217.6v76.8c0 24.768 20.032 44.8 44.8 44.8h691.2a44.8 44.8 0 0 0 44.8-44.8v-76.8h12.8v76.8a57.6 57.6 0 0 1-57.6 57.6H166.4A57.5616 57.5616 0 0 1 108.8 294.4v-76.8h12.8zM256 742.4128A51.2256 51.2256 0 0 0 307.3024 793.6h434.9952A51.2128 51.2128 0 0 0 793.6 742.4128V460.8c0-28.2752-22.9248-51.2-51.3024-51.2H307.3024A51.2128 51.2128 0 0 0 256 460.7872V742.4128zM512 396.8h12.8v-179.2h-12.8zM409.6 652.8h230.4v-12.8H409.6v12.8z m0-89.6h179.2v-12.8H409.6v12.8zM268.8 742.4128V460.8c0-21.2352 17.216-38.4 38.5024-38.4h434.9952A38.4128 38.4128 0 0 1 780.8 460.7872V742.4128A38.4128 38.4128 0 0 1 742.2976 780.8H307.3024A38.4128 38.4128 0 0 1 268.8 742.4128zM729.6 153.664v-128.128A38.336 38.336 0 0 1 767.872-12.8h205.056c21.1456 0 38.272 17.152 38.272 38.336v128.128A38.336 38.336 0 0 1 972.928 192H767.872A38.2848 38.2848 0 0 1 729.6 153.664zM358.4 153.664A51.0848 51.0848 0 0 0 409.472 204.8h205.056A51.1232 51.1232 0 0 0 665.6 153.664v-128.128A51.0848 51.0848 0 0 0 614.528-25.6H409.472A51.1232 51.1232 0 0 0 358.4 25.536v128.128zM0 153.664A51.0848 51.0848 0 0 0 51.072 204.8h205.056A51.1232 51.1232 0 0 0 307.2 153.664v-128.128A51.0848 51.0848 0 0 0 256.128-25.6H51.072A51.1232 51.1232 0 0 0 0 25.536v128.128zM371.2 153.664v-128.128A38.336 38.336 0 0 1 409.472-12.8h205.056c21.1456 0 38.272 17.152 38.272 38.336v128.128A38.336 38.336 0 0 1 614.528 192H409.472A38.2848 38.2848 0 0 1 371.2 153.664zM12.8 153.664v-128.128A38.336 38.336 0 0 1 51.072-12.8h205.056c21.1456 0 38.272 17.152 38.272 38.336v128.128A38.336 38.336 0 0 1 256.128 192H51.072A38.2848 38.2848 0 0 1 12.8 153.664z"  horiz-adv-x="1024" />

    
    <glyph glyph-name="shujufenxi" unicode="&#58976;" d="M76.8 166.528V678.272A51.2 51.2 0 0 0 128 729.6h768c28.2752 0 51.2-22.9632 51.2-51.328v-511.744M0 153.6h1024v-51.2c0-28.2752-22.8224-51.2-51.136-51.2H51.136A51.2 51.2 0 0 0 0 102.4v51.2zM89.6 166.4V666.624C89.6 694.336 111.7568 716.8 139.2896 716.8h745.4208C912.1536 716.8 934.4 694.3488 934.4 666.624V166.4M12.8 102.4a38.4 38.4 0 0 1 38.336-38.4h921.7408A38.3232 38.3232 0 0 1 1011.2 102.4v38.4H12.8v-38.4z m-12.8 51.2h1024v-51.2c0-28.2752-22.8224-51.2-51.136-51.2H51.136A51.2 51.2 0 0 0 0 102.4v51.2z m409.6-51.2c0 7.0656 5.696 12.8 12.8128 12.8h179.1744A12.7744 12.7744 0 0 0 614.4 102.4c0-7.0656-5.696-12.8-12.8128-12.8H422.4128A12.7744 12.7744 0 0 0 409.6 102.4z m191.9872 0c0.0128 0.0256-179.1744 0-179.1744 0-0.0128-0.0256 179.1744 0 179.1744 0zM540.1344 319.9872l270.3232 238.4128a6.4 6.4 0 1 1-8.4736 9.6L543.9232 340.4032l-115.456 221.3504L225.6256 334.464a6.4 6.4 0 1 1 9.5488-8.5248l190.5024 213.4656 114.4576-219.4176zM236.8 339.2m-19.2 0a19.2 19.2 0 1 1 38.4 0 19.2 19.2 0 1 1-38.4 0ZM428.8 556.8m-19.2 0a19.2 19.2 0 1 1 38.4 0 19.2 19.2 0 1 1-38.4 0ZM544 339.2m-19.2 0a19.2 19.2 0 1 1 38.4 0 19.2 19.2 0 1 1-38.4 0ZM812.8 569.6m-19.2 0a19.2 19.2 0 1 1 38.4 0 19.2 19.2 0 1 1-38.4 0Z"  horiz-adv-x="1024" />

    
    <glyph glyph-name="shangjiabangzhu" unicode="&#58977;" d="M576 266.944v-106.304c0-18.24-14.208-32.64-31.936-32.64H479.936A31.936 31.936 0 0 0 448 160.576V266.944A192.064 192.064 0 0 0 512 640a192 192 0 0 0 64-373.056z m64-40.704a256 256 0 1 1-256 0v-65.664A96 96 0 0 1 479.936 64h64.128C597.312 64 640 107.264 640 160.576v65.664zM448-32c0 17.664 13.696 32 32.32 32h63.424c17.792 0 32.256-14.848 32.256-32 0-17.664-13.696-32-32.32-32h-63.36A32.512 32.512 0 0 0 448-32zM469.568 863.68c0 17.856 14.848 32.32 32 32.32 17.664 0 32-13.696 32-32.32v-63.424a32.512 32.512 0 0 0-32-32.256 31.68 31.68 0 0 0-32 32.32v63.36z m336.768-131.456a32.512 32.512 0 0 0 45.248-4.544 31.616 31.616 0 0 0-4.992-45.184l-49.28-39.872a32.512 32.512 0 0 0-45.248 4.544 31.616 31.616 0 0 0 4.992 45.184l49.28 39.872z m107.712-345.6c17.408-4.032 28.16-21.76 24.256-38.464a31.68 31.68 0 0 0-38.656-23.936l-61.76 14.272a32.448 32.448 0 0 0-24.256 38.464 31.68 31.68 0 0 0 38.656 23.936l61.76-14.272z m-810.496-62.4a32.64 32.64 0 0 0-38.72 23.936 31.68 31.68 0 0 0 24.32 38.464l61.76 14.272a32.512 32.512 0 0 0 38.656-23.936 31.744 31.744 0 0 0-24.256-38.464l-61.76-14.272z m53.056 358.272a32.512 32.512 0 0 0-4.992 45.184 31.68 31.68 0 0 0 45.248 4.544l49.28-39.872a32.512 32.512 0 0 0 4.992-45.184 31.68 31.68 0 0 0-45.248-4.544l-49.28 39.872z"  horiz-adv-x="1024" />

    
    <glyph glyph-name="ruzhuguize" unicode="&#58978;" d="M729.557333 336.384a114.517333 114.517333 0 0 0-57.344-16.384c-28.544 0-53.461333 12.629333-58.666666 15.36-4.608 1.749333-32.853333 12.672-55.594667 12.672-20.48 0-47.573333-9.344-56.192-12.928a13.994667 13.994667 0 0 0-13.269333 1.28 13.781333 13.781333 0 0 0-6.357334 11.648V530.901333a14.08 14.08 0 0 0 8.789334 12.928c1.450667 0.554667 37.632 15.104 68.437333 15.104 31.146667 0 64.554667-14.677333 66.005333-15.232 0.597333-0.170667 1.109333-0.426667 1.621334-0.725333 0.128-0.170667 20.565333-12.074667 44.074666-12.074667a95.146667 95.146667 0 0 1 43.52 11.904 13.994667 13.994667 0 0 0 14.250667 0.298667 13.909333 13.909333 0 0 0 7.210667-12.202667v-182.741333a13.994667 13.994667 0 0 0-6.485334-11.776M533.333333-106.666667c259.242667 0 469.333333 210.133333 469.333334 469.333334s-210.090667 469.333333-469.333334 469.333333c-259.2 0-469.333333-210.133333-469.333333-469.333333s210.133333-469.333333 469.333333-469.333334M717.994667 354.346667l-0.256-0.170667 0.256 0.170667z m-3.285334-1.962667c-2.346667-1.237333-6.016-2.986667-10.069333-4.565333a89.856 89.856 0 0 0-32.426667-6.485334c-17.962667 0-35.029333 5.717333-48.768 12.928a224.170667 224.170667 0 0 1-49.194666 13.866667 115.797333 115.797333 0 0 1-16.298667 1.237333c-16.554667 0-37.504-4.864-54.485333-10.794666V525.781333c4.906667 1.834667 8.917333 3.114667 15.786666 5.12 10.410667 2.986667 20.565333 5.162667 29.824 6.144a98.005333 98.005333 0 0 0 15.232 0.426667c10.368-0.597333 21.888-2.944 33.664-6.570667 8.234667-2.517333 14.634667-4.949333 19.754667-7.125333-0.64 0.256-0.64 0.256-1.493333 0.768 12.074667-7.637333 35.584-14.976 54.826666-14.976 14.72 0 31.488 4.266667 43.648 9.386667a67.84 67.84 0 0 1 10.922667 5.589333 7.296 7.296 0 0 0-7.296 0 7.253333 7.253333 0 0 0-3.584 6.357333v-182.741333c0 2.432 1.152 4.650667 3.072 6.016l-0.554667-0.384-2.56-1.408z m42.666667-4.224V530.901333a35.2 35.2 0 0 1-18.346667 30.933334 35.072 35.072 0 0 1-35.626666-0.896l-3.882667-3.072c2.389333 2.389333-2.304 0.085333-5.418667-1.109334-7.68-2.858667-15.616-4.565333-22.997333-4.565333a67.84 67.84 0 0 0-23.381333 4.650667 90.24 90.24 0 0 0-7.594667 3.242666c4.736-2.346667-3.072 1.962667 3.968-4.352l-6.314667 5.632c-2.474667 1.408-2.474667 1.408-6.570666 2.858667a168.533333 168.533333 0 0 1-20.821334 7.509333 189.013333 189.013333 0 0 1-43.648 8.32 138.069333 138.069333 0 0 1-22.229333-0.64c-11.946667-1.28-24.405333-3.925333-36.992-7.552a254.549333 254.549333 0 0 1-24.192-8.106666 35.498667 35.498667 0 0 1-22.528-32.853334v-182.869333c0-12.032 6.101333-23.210667 16.256-29.653333 9.386667-6.357333 22.016-7.552 32.981333-2.944 13.226667 5.504 34.730667 11.264 47.914667 11.264 3.029333 0 6.485333-0.256 10.24-0.810667 6.485333-0.938667 13.610667-2.56 20.992-4.778667 6.485333-1.92 10.88-3.456 16.768-5.717333 16.938667-9.045333 39.893333-16.725333 66.261333-16.725333 28.714667 0 55.381333 10.325333 69.333334 20.053333a35.413333 35.413333 0 0 1 15.829333 29.44zM533.333333-128C804.309333-128 1024 91.690667 1024 362.666667S804.309333 853.333333 533.333333 853.333333C262.314667 853.333333 42.666667 633.642667 42.666667 362.666667S262.314667-128 533.333333-128z m0 42.666667C285.909333-85.333333 85.333333 115.242667 85.333333 362.666667S285.909333 810.666667 533.333333 810.666667 981.333333 610.133333 981.333333 362.666667 780.757333-85.333333 533.333333-85.333333zM362.666667 106.666667h-21.205334a21.632 21.632 0 0 1-21.461333-21.333334c0-11.434667 9.6-21.333333 21.461333-21.333333h255.744c11.52 0 21.461333 9.557333 21.461334 21.333333 0 11.434667-9.6 21.333333-21.461334 21.333334H405.333333V554.666667c0 11.562667-9.557333 21.333333-21.333333 21.333333-11.434667 0-21.333333-9.557333-21.333333-21.333333v-448z"  horiz-adv-x="1024" />

    
    <glyph glyph-name="pintuan" unicode="&#58979;" d="M896.0768 502.0928c0 205.7728-166.8352 372.5824-372.5824 372.5824-205.7984 0-372.5568-166.8352-372.5568-372.5824 0-154.624 94.208-287.232 228.3264-343.6032-50.944-43.648-83.456-109.952-83.456-184.192 0-69.376 164.0448-72.448 227.6864-72.448s227.6864 3.072 227.6864 72.448c0 74.24-32.512 140.544-83.456 184.192 134.144 56.3712 228.352 189.0048 228.352 343.6032z m-217.9584-137.6a206.48448 206.48448 0 0 0-154.624-69.376v0.0256a206.45888 206.45888 0 0 0-154.88512 69.64224 20.7104 20.7104 0 0 0 31.54432 26.84416 165.08416 165.08416 0 0 1 123.3408-55.1168 165.08928 165.08928 0 0 1 124.63616 56.55552 20.71552 20.71552 0 0 0 29.98784-28.57472zM169.0624 45.3376c-4.9408-11.1616-9.2672-22.0416-12.7488-32.512-6.0928-18.2784-9.5232-34.56-9.5232-48.8704a24.832 24.832 0 1 1 49.664 0c0 8.0384 2.432 19.5072 6.9888 33.152a317.98784 317.98784 0 0 0 11.0336 28.1088 474.05056 474.05056 0 0 0 18.9696 37.9904 24.832 24.832 0 0 1-14.08 36.0448c-79.61088 25.09824-123.8016 109.98272-98.70336 189.5936a150.99392 150.99392 0 0 0 16.01536 34.7136 24.84224 24.84224 0 1 1-42.0864 26.4192c-58.86464-93.99296-30.38208-217.9072 63.61088-276.76672a201.45664 201.45664 0 0 1 18.94912-10.49088c-2.7648-5.632-5.4784-11.4688-8.0896-17.3824zM981.8624 243.1232a199.95648 199.95648 0 0 1-30.592 106.5984 24.83712 24.83712 0 0 1-42.09152-26.39872c44.27264-70.76864 22.78912-164.02432-47.9744-208.29184a151.32672 151.32672 0 0 0-34.7136-16.01536 24.832 24.832 0 0 1-14.08-36.0704 474.05056 474.05056 0 0 0 18.9696-37.9904 326.71232 326.71232 0 0 0 11.0592-28.1088c4.5568-13.6448 6.9632-25.1136 6.9632-33.1264a24.832 24.832 0 1 1 49.664 0c0 14.3104-3.4048 30.592-9.5232 48.8704a371.0464 371.0464 0 0 1-12.7488 32.512c-2.6112 5.888-5.3248 11.6992-8.0896 17.3568a200.8064 200.8064 0 0 1 113.15712 180.66432z"  horiz-adv-x="1024" />

    
    <glyph glyph-name="dabaozhuang" unicode="&#58980;" d="M841.1392 768H182.8608C110.17216 767.94368 51.25632 709.02784 51.2 636.3392V109.7216c0.05632-72.68864 58.97216-131.60448 131.6608-131.6608h658.2784c72.68864 0.05632 131.60448 58.97216 131.6608 131.6608V636.3392c-0.05632 72.68864-58.97216 131.60448-131.6608 131.6608z m-31.8208-394.9824h-33.9968a261.6832 261.6832 0 0 0-77.1328-186.1632c-49.7152-49.7152-115.8656-77.1328-186.1888-77.1328a261.6832 261.6832 0 0 0-186.1632 77.1328c-49.6896 49.6896-77.1328 115.84-77.1328 186.1632H215.808a32.88064 32.88064 0 0 0-32.9216 32.9216c0 18.2272 14.6944 32.9216 32.9216 32.9216h131.6096c18.2272 0 32.9216-14.6944 32.9216-32.9216 0-18.2016-14.6944-32.9216-32.9216-32.9216H314.5216c0.08704-109.0304 88.448-197.39136 197.4784-197.4784 109.0304 0.08704 197.39136 88.448 197.4784 197.4784h-31.8208a32.8704 32.8704 0 0 0-32.896 32.9216c0 18.2272 14.6944 32.9216 32.896 32.9216h131.6608c18.2272 0 32.9216-14.6944 32.9216-32.9216 0-18.2016-14.6944-32.9216-32.9216-32.9216z m97.664 197.504H116.992V636.3392c0 36.3776 29.4912 65.8688 65.8688 65.8688v-0.0256h658.2784c36.35712-0.01536 65.82784-29.48608 65.8432-65.8432V570.5216z"  horiz-adv-x="1024" />

    
    <glyph glyph-name="xianshitemai" unicode="&#58981;" d="M854.3232 662.3744l44.8 44.8 31.6672-31.6672 35.328 35.328-105.984 105.9584-35.328-35.328 38.9888-38.9888-44.6464-44.6208a472.81664 472.81664 0 0 1-319.0016 123.2128C238.0544 821.0688 25.6 608.6144 25.6 346.5472 25.6 84.4544 238.08-128 500.1472-128s474.5216 212.48 474.5216 474.5472c0 121.2672-45.4912 231.936-120.3456 315.8272z m-329.216-386.5088v-54.1952h-49.9456v54.2208a74.94144 74.94144 0 0 0-45.62944 45.62944c-13.81888 39.02464 6.60992 81.85856 45.62944 95.68256v278.9888h49.9456V417.1776a74.94144 74.94144 0 0 0 45.62944-45.62944c13.824-39.02464-6.6048-81.86368-45.62944-95.68256zM475.1616 896h49.9456v-74.9312h-49.9456z"  horiz-adv-x="1024" />

    
    <glyph glyph-name="shangchuan" unicode="&#59165;" d="M864 249.6c-19.2 0-32-12.8-32-32v-153.6h-576v160c0 19.2-12.8 32-32 32s-32-12.8-32-32v-192c0-19.2 12.8-32 32-32h640c19.2 0 32 12.8 32 32v185.6c0 19.2-12.8 32-32 32zM345.6 486.4l166.4 166.4v-435.2c0-19.2 12.8-32 32-32s32 12.8 32 32v435.2l166.4-166.4c12.8-12.8 32-12.8 44.8 0 12.8 12.8 12.8 32 0 44.8l-224 224s-6.4 6.4-12.8 6.4c-6.4 6.4-19.2 6.4-25.6 0-6.4 0-6.4-6.4-12.8-6.4l-224-224c-12.8-12.8-12.8-32 0-44.8 19.2-6.4 44.8-6.4 57.6 0z"  horiz-adv-x="1088" />

    
    <glyph glyph-name="jichuguize" unicode="&#58982;" d="M640.384 853.333333H213.12A84.992 84.992 0 0 1 128 768.384v-768.768C128-47.36 166.101333-85.333333 213.12-85.333333h597.76A85.034667 85.034667 0 0 1 896-0.384V599.210667l-42.666667 42.410666v-641.962666a42.410667 42.410667 0 0 0-42.709333-42.325334H213.333333c-23.552 0-42.666667 19.413333-42.666666 42.325334V768.341333A42.410667 42.410667 0 0 0 213.333333 810.666667h469.973334l-42.922667 42.666666zM683.306667 810.666667H213.376A42.410667 42.410667 0 0 1 170.666667 768.341333v-768.682666c0-22.912 19.114667-42.325333 42.709333-42.325334h597.248A42.410667 42.410667 0 0 1 853.333333-0.341333V641.621333L683.306667 810.666667zM426.666667 597.333333H298.666667V640h128v-42.666667zM256 362.666667c0 11.776 9.941333 21.333333 21.461333 21.333333h255.744c11.861333 0 21.461333-9.898667 21.461334-21.333333 0-11.776-9.941333-21.333333-21.461334-21.333334H277.461333A21.632 21.632 0 0 0 256 362.666667m0 85.333333c0 11.776 9.728 21.333333 21.76 21.333333h383.146667a21.76 21.76 0 0 0 21.76-21.333333c0-11.776-9.728-21.333333-21.76-21.333333H277.76a21.76 21.76 0 0 0-21.76 21.333333M640 853.333333v-170.752A85.333333 85.333333 0 0 1 725.248 597.333333H896l-256 256z m42.666667-102.997333L793.002667 640h-67.754667A42.666667 42.666667 0 0 0 682.666667 682.581333V750.336zM256 682.666667v-128h213.333333V682.666667H256z m170.666667-85.333334H298.666667V640h128v-42.666667z"  horiz-adv-x="1024" />

    
    <glyph glyph-name="CombinedShape" unicode="&#58882;" d="M512-128c282.758 0 512 229.242 512 512s-229.242 512-512 512-512-229.242-512-512 229.242-512 512-512zM512-38.957c-233.592 0-422.957 189.364-422.957 422.957s189.364 422.957 422.957 422.957c233.592 0 422.957-189.364 422.957-422.957 0-233.592-189.364-422.957-422.957-422.957zM740.129 605.629c-5.082 3.477-11.362 5.552-18.127 5.552-11.071 0-20.843-5.558-26.68-14.036l-266.133-316.881-120.253 120.832c-5.845 5.826-13.911 9.429-22.817 9.429s-16.972-3.602-22.818-9.43l-45.678-46.035c-5.85-5.876-9.467-13.98-9.467-22.929s3.617-17.053 9.468-22.93l184.853-185.833c10.374-10.374 26.624-18.432 41.272-18.432 14.692 0 29.384 9.305 38.912 23.151l321.18 386.003c3.486 5.105 5.566 11.411 5.566 18.202 0 11.104-5.561 20.91-14.050 26.783l-55.226 46.552z"  horiz-adv-x="1024" />

    
    <glyph glyph-name="shenheshibai" unicode="&#58883;" d="M512-128C794.757565-128 1024 101.242435 1024 384S794.757565 896 512 896 0 666.757565 0 384 229.242435-128 512-128zM417.569391 384l-108.633043 108.633043a66.782609 66.782609 0 1 0 94.47513 94.386087L512 478.47513l108.633043 108.633044a66.782609 66.782609 0 0 0 94.386087-94.475131L606.47513 384l108.633044-108.633043a66.782609 66.782609 0 0 0-94.475131-94.386087L512 289.52487l-108.633043-108.633044a66.782609 66.782609 0 0 0-94.386087 94.475131L417.52487 384zM512-38.956522a422.956522 422.956522 0 1 0 0 845.913044 422.956522 422.956522 0 0 0 0-845.913044z"  horiz-adv-x="1024" />

    
    <glyph glyph-name="dianhua" unicode="&#58983;" d="M1024 87.267556c0-13.084444-2.446222-30.151111-7.281778-51.256889-4.835556-21.048889-9.955556-37.717333-15.246222-49.834667-10.24-24.234667-39.822222-49.948444-88.746667-77.084444-45.568-24.746667-90.680889-37.091556-135.281777-37.091556-13.084444 0-25.827556 0.853333-38.172445 2.56a314.368 314.368 0 0 0-41.813333 9.102222 592.896 592.896 0 0 0-34.531556 10.524445 2863.957333 2863.957333 0 0 0-40.391111 14.904889c-19.342222 7.281778-31.288889 11.662222-35.612444 13.084444a658.659556 658.659556 0 0 0-127.260445 60.359111c-62.065778 38.286222-126.179556 90.567111-192.398222 156.728889-66.161778 66.218667-118.442667 130.275556-156.728889 192.398222a658.659556 658.659556 0 0 0-60.302222 127.260445 1549.539556 1549.539556 0 0 1-13.141333 35.612444c-7.281778 19.399111-12.231111 32.881778-14.904889 40.391111a592.896 592.896 0 0 0-10.524445 34.531556 314.368 314.368 0 0 0-9.102222 41.813333A280.576 280.576 0 0 0 0 649.443556c0 44.600889 12.344889 89.713778 37.091556 135.281777 27.136 48.924444 52.849778 78.506667 77.084444 88.746667 12.117333 5.290667 28.728889 10.410667 49.834667 15.246222A240.071111 240.071111 0 0 0 215.267556 896c6.826667 0 11.889778-0.739556 15.303111-2.161778 8.704-2.901333 21.560889-21.333333 38.513777-55.296 5.347556-9.216 12.629333-22.300444 21.845334-39.253333 9.216-17.009778 17.635556-32.426667 25.429333-46.193778 7.736889-13.824 15.303111-26.794667 22.528-38.912 1.479111-1.934222 5.688889-7.964444 12.743111-18.204444 7.054222-10.183111 12.231111-18.773333 15.644445-25.770667 3.413333-7.054222 5.12-13.937778 5.12-20.764444 0-9.671111-6.940444-21.788444-20.764445-36.352s-28.842667-27.875556-45.112889-39.992889c-16.213333-12.117333-31.288889-25.031111-45.056-38.570667-13.824-13.539556-20.707556-24.689778-20.707555-33.450667 0-4.323556 1.137778-9.784889 3.584-16.327111 2.446222-6.542222 4.551111-11.548444 6.257778-14.904889 1.649778-3.413333 5.063111-9.216 10.126222-17.464889 5.12-8.248889 7.907556-12.856889 8.362666-13.824 36.864-66.446222 79.075556-123.448889 126.577778-170.894222 47.502222-47.559111 104.448-89.713778 170.894222-126.577778 0.967111-0.455111 5.575111-3.242667 13.824-8.362666s14.051556-8.533333 17.464889-10.183111c3.413333-1.706667 8.362667-3.754667 14.904889-6.200889 6.542222-2.389333 11.946667-3.584 16.327111-3.584 8.760889 0 19.911111 6.883556 33.450667 20.707555 13.596444 13.824 26.453333 28.842667 38.570667 45.056 12.117333 16.270222 25.429333 31.288889 39.992889 45.112889 14.563556 13.824 26.680889 20.707556 36.408888 20.707556 6.769778 0 13.653333-1.706667 20.707556-5.063111 6.997333-3.413333 15.587556-8.590222 25.770667-15.644445 10.24-6.997333 16.270222-11.264 18.204444-12.743111 12.117333-7.224889 25.088-14.791111 38.912-22.528 13.824-7.736889 29.184-16.213333 46.193778-25.429333 16.952889-9.216 30.037333-16.497778 39.253333-21.845334 33.962667-16.952889 52.337778-29.809778 55.296-38.513777 1.422222-3.413333 2.161778-8.533333 2.161778-15.303111z"  horiz-adv-x="1024" />

    
    <glyph glyph-name="jiantou" unicode="&#58984;" d="M512-71.111111A455.111111 455.111111 0 1 1 512 839.111111a455.111111 455.111111 0 0 1 0-910.222222z m0-56.888889A512 512 0 1 0 512 896a512 512 0 0 0 0-1024z m-153.998222 302.08a56.888889 56.888889 0 1 1 80.440889-80.440889l269.653333 269.653333a56.888889 56.888889 0 0 1-0.341333 80.782223l-269.653334 264.931555a56.888889 56.888889 0 0 1-79.758222-81.123555l228.693333-224.711111-229.034666-229.091556z"  horiz-adv-x="1024" />

    
    <glyph glyph-name="tishi1" unicode="&#59182;" d="M512 896C228.266667 896 0 667.733333 0 384s228.266667-512 512-512 512 228.266667 512 512S795.733333 896 512 896z m102.4-750.933333c0-40.533333-27.733333-68.266667-68.266667-68.266667h-68.266666c-40.533333 0-68.266667 27.733333-68.266667 68.266667V430.933333c0 40.533333 27.733333 68.266667 68.266667 68.266667h68.266666c40.533333 0 68.266667-27.733333 68.266667-68.266667v-285.866666z m0 512c0-40.533333-27.733333-68.266667-68.266667-68.266667h-68.266666c-40.533333 0-68.266667 27.733333-68.266667 68.266667V691.2c0 40.533333 27.733333 68.266667 68.266667 68.266667h68.266666c40.533333 0 68.266667-27.733333 68.266667-68.266667v-34.133333z"  horiz-adv-x="1024" />

    
    <glyph glyph-name="daikuanzhuanzhang" unicode="&#58884;" d="M512.292571 895.634286a511.268571 511.268571 0 1 0 0-1022.610286 511.268571 511.268571 0 0 0 0 1022.537143z m221.696-452.169143V525.824a32.548571 32.548571 0 0 1-10.825142 24.137143 34.596571 34.596571 0 0 1-23.259429 8.777143h-2.340571a311.296 311.296 0 0 0-82.651429 6.875428c-33.865143 8.045714-72.923429 45.348571-84.333714 52.662857a34.962286 34.962286 0 0 1-37.961143 0.146286c-1.462857-0.950857-42.422857-43.373714-82.432-52.882286a315.538286 315.538286 0 0 0-83.163429-6.802285H324.754286a34.816 34.816 0 0 1-23.405715-8.777143 32.256 32.256 0 0 1-10.752-24.137143v-82.358857c0-304.859429 206.116571-344.064 214.893715-345.6a32.182857 32.182857 0 0 1 12.068571 0c8.777143 1.536 216.502857 40.813714 216.502857 345.6z m-116.516571 16.969143a21.284571 21.284571 0 0 0 29.403429 0c8.192-7.826286 8.192-20.48 0.073142-28.379429L504.027429 293.741714a21.065143 21.065143 0 0 0-18.505143-10.093714 21.357714 21.357714 0 0 0-18.578286 10.093714l-76.434286 73.874286a19.602286 19.602286 0 0 0 0 28.525714 21.284571 21.284571 0 0 0 29.403429 0l65.462857-63.414857 132.096 127.707429z"  horiz-adv-x="1024" />

    
    <glyph glyph-name="dakuanzhanghu" unicode="&#58885;" d="M869.762415 896H173.55834C121.720755 896 77.283019 850.17117 77.283019 796.691321v-458.288302C77.283019 284.92317 121.720755 239.09434 173.55834 239.09434h696.204075C921.6 239.09434 966.037736 284.92317 966.037736 338.403019V796.691321C966.037736 850.17117 921.6 896 869.762415 896z m44.437736-557.596981c0-26.739925-22.218868-45.848151-44.437736-45.848151H173.55834c-25.909132 0-44.437736 22.914415-44.437736 45.848151V796.691321c0 26.739925 22.218868 45.848151 44.437736 45.848151h696.204075c25.909132 0 44.437736-22.914415 44.437736-45.848151v-458.288302zM821.615094 735.599094h-199.969811c-11.109434 0-18.509283-11.457208-18.509283-26.739924 0-15.263396 7.399849-26.739925 18.509283-26.739925h199.969811c11.109434 0 18.509283 11.457208 18.509283 26.739925 0 15.263396-7.399849 26.739925-18.509283 26.739924z m0-133.680302h-199.969811c-11.109434 0-18.509283-11.457208-18.509283-26.739924 0-15.263396 7.399849-26.720604 18.509283-26.720604h199.969811c11.109434 0 18.509283 11.457208 18.509283 26.720604 0 15.282717-7.399849 26.739925-18.509283 26.739924z m0-133.680301H654.973585c-11.109434 0-18.509283-11.457208-18.509283-26.720604 0-15.282717 7.399849-26.739925 18.509283-26.739925h166.641509c11.109434 0 18.509283 11.457208 18.509283 26.739925 0 15.263396-7.399849 26.720604-18.509283 26.720604z m-377.720754 64.917735c29.618717 22.933736 44.437736 61.130868 44.437735 99.30868 0 72.568755-55.54717 129.854792-125.913358 129.854792-70.346868 0-125.894038-57.286038-125.894038-129.835472 0-42.022642 18.509283-76.394264 44.437736-99.308679-48.147321-22.914415-88.875472-68.743245-107.404075-126.029283-3.690264-11.457208 3.709585-26.739925 14.819018-30.565434 14.819019-3.806189 25.928453 3.825509 29.618717 15.282717 18.528604 64.917736 74.075774 106.940377 140.732378 106.940378 62.947019 0 122.203774-42.022642 140.713056-106.940378 3.709585-11.457208 14.819019-19.088906 22.218868-19.088905h7.399849c11.109434 3.806189 18.528604 19.088906 14.819019 30.546113-11.109434 61.111547-48.147321 106.940377-99.984905 129.835471z m-81.475623 179.528453c44.437736 0 77.766038-34.390943 77.766038-80.219773s-33.328302-80.181132-77.766038-80.181132c-44.437736 0-77.766038 34.352302-77.766038 80.181132 0 45.848151 37.037887 80.219774 77.766038 80.219773zM126.319094 19.146868v-23.609962c-11.051472-4.772226-22.102943-9.293283-33.154415-13.56317v-70.578717c0-16.074868-8.539774-24.363472-25.116981-24.363472H42.177208l-5.525736 23.107623c8.037434-0.753509 15.823698-1.255849 23.107622-1.255849 6.028075 0 9.293283 3.014038 9.293283 8.790943V-26.566038c-11.804981-3.767547-23.609962-7.283925-35.666113-10.549132l-5.776906 22.605283a455.853887 455.853887 0 0 1 41.443019 10.800302v53.248H31.628075v22.856453h37.424302v43.201207h24.112302v-43.201207h30.642717v-22.856453H93.164679v-44.708226a471.465057 471.465057 0 0 1 33.154415 14.316679z m3.767548 79.872h127.594264v-23.107623h-38.680151v-162.506868c0-17.079547-8.288604-25.870491-24.363472-25.87049H152.691925L147.417358-89.358491c13.56317-0.753509 26.624-1.255849 38.931321-1.255849 5.525736 0 8.539774 3.516377 8.539774 10.046793v156.478792H130.086642V99.018868z m151.957735-3.767547h51.238642V116.600755h22.605283v-21.349434h44.205887v-20.595925H355.888302v-17.079547h38.428981v-20.093585h-103.481962v20.093585h42.447698v17.079547h-51.238642v20.595925z m17.079548-73.090415h87.407094v-20.595925h-87.407094v20.595925z m-15.321359-34.912604h119.054491v-20.847094h-47.219925v-58.522566c0-15.070189-8.288604-22.605283-24.363472-22.605284H310.677736l-4.772227 21.600604c6.028075-1.004679 12.056151-1.507019 17.833057-1.507019 6.028075 0 9.293283 2.762868 9.293283 8.037434v52.996831h-49.229283v20.847094z m16.828377-29.889208l19.088906-3.767547c-5.525736-19.340075-13.06083-35.917283-23.107623-49.982792l-17.833056 11.302641a122.145811 122.145811 0 0 1 21.851773 42.447698z m83.639548 2.260529c5.776906-11.302642 11.051472-23.358792 15.572528-36.419623l-18.586566-8.288604c-4.772226 14.567849-10.046792 27.628679-15.823698 38.680151l18.837736 6.028076z m37.424301 155.976452l21.851774-3.516377a469.165887 469.165887 0 0 0-5.023396-33.154415h65.052981v-14.316679a805.134491 805.134491 0 0 0-12.558491-63.294793l-22.102943 6.279246c4.521057 14.316679 8.539774 30.893887 11.553811 49.982792h-46.968754c-5.776906-20.595925-13.06083-37.173132-22.102944-49.731623l-18.084226 13.060831c14.567849 22.605283 24.112302 54.252679 28.382188 94.691018z m17.330717-75.602113h21.600604c0-16.577208-0.753509-31.898566-2.260528-45.964075 10.549132-38.177811 28.884528-68.569358 54.503849-91.174642l-15.823698-18.084226c-19.591245 19.591245-34.912604 43.201208-45.712906 70.578717-7.786264-28.884528-25.116981-52.74566-52.243321-71.834566l-14.567849 17.330717c23.358792 16.577208 38.680151 36.670792 45.964076 60.783094 5.525736 20.093585 8.539774 46.215245 8.539773 78.364981z m191.642566 68.067019v-159.99517h-20.847094v138.143397h-48.475773v-138.143397h-21.600604v159.99517h90.923471z m-55.508528-37.675472h20.093585v-82.132528c-0.50234-28.131019-4.772226-50.736302-12.80966-67.564679-7.786264-15.823698-20.344755-28.131019-37.675472-36.670793l-12.80966 20.093585c16.326038 8.288604 27.628679 18.837736 33.656754 31.396227 5.525736 13.56317 8.790943 31.145057 9.544453 52.74566v82.132528z m29.135698-128.598943a296.631547 296.631547 0 0 0 32.903246-38.680151l-17.079548-17.079547c-7.283925 12.80966-17.581887 26.37283-30.893886 40.940679l15.070188 14.819019z m92.179321 49.731623h-18.335396v-76.606793a175.973434 175.973434 0 0 1 30.391547 15.823698l4.269887-21.349434c-15.823698-9.795623-33.907925-17.833057-54.503849-24.363471l-9.795623 21.098264c4.018717 2.260528 6.279245 5.525736 6.279245 9.544453v75.853283h-16.074868v23.107622h16.074868v101.723774h23.358793v-101.723774h81.127849v-23.107622h-42.447698c11.302642-37.173132 27.12634-65.806491 47.471094-85.900076l-16.074868-18.586566c-22.605283 23.861132-39.936 58.773736-51.740981 104.486642z m41.191849 114.282264l18.335396-14.819019c-17.330717-28.131019-37.675472-49.229283-61.034264-62.792453l-12.80966 18.335396c21.600604 13.06083 39.936 32.903245 55.508528 59.276076z m94.942189-107.500679c-1.507019-44.205887-13.06083-82.634868-34.912604-114.784604l-17.581887 16.074868c19.088906 27.377509 28.884528 62.792453 29.135698 105.99366v82.132528h80.62551a206.732075 206.732075 0 0 1-13.56317 26.87517l25.619321 4.018717c4.269887-9.293283 8.288604-19.591245 12.30732-30.893887h79.620831v-89.416452h-161.251019z m137.138717 66.05766h-136.887547v-42.698868h136.887547v42.698868z"  horiz-adv-x="1024" />

    
    <glyph glyph-name="jiantou1" unicode="&#58886;" d="M555.861333 728.576V-128H468.138667V728.576l-363.52-362.666667L42.666667 427.776 512 896 981.333333 427.776l-61.952-61.866667-363.52 362.666667z"  horiz-adv-x="1024" />

    
    <glyph glyph-name="xiangxiajiantou" unicode="&#58887;" d="M552.487385 82.313846V872.841846H471.512615V82.313846L135.955692 417.083077 78.769231 359.975385l433.230769-432.285539L945.230769 359.975385l-57.186461 57.028923-335.556923-334.769231z"  horiz-adv-x="1024" />

    
    </font>
</defs>
</svg>
